<svg xmlns="http://www.w3.org/2000/svg"><symbol viewBox="0 0 39.99471 39.997044" id="icon_24_hours">
<path d="M18.5938 0.0469971C18.4453 0.0626221 17.9844 0.11731 17.5781 0.164185C15.1484 0.437622 12.3594 1.33606 10.2266 2.53918C8.55469 3.4845 7.20312 4.50793 5.85938 5.8595C2.66406 9.047 0.671875 13.1251 0.117188 17.5782C-0.0390625 18.8439 -0.0390625 21.2345 0.117188 22.5001C0.546875 25.9689 2.00781 29.547 4.11719 32.2892C4.67188 33.0001 5.24219 33.1954 5.90625 32.8986C6.39062 32.6798 6.60156 32.3282 6.60156 31.7423C6.60156 31.3282 6.57031 31.2267 6.34375 30.922C4.30469 28.2032 3.15625 25.5314 2.6875 22.422C2.52344 21.3361 2.5 19.0548 2.64844 17.9689C3.75 9.72668 10.1719 3.47668 18.3672 2.65637C18.8594 2.60168 19.3438 2.57825 19.4375 2.59387C19.5703 2.6095 19.3281 2.8595 18.1875 3.86731C17.2969 4.65637 16.7344 5.21106 16.6719 5.36731C16.2031 6.46887 17.2891 7.55481 18.3828 7.07825C18.7422 6.922 23.7969 2.40637 23.9531 2.10168C24.1172 1.78137 24.1172 1.19543 23.9531 0.882935C23.75 0.484497 23.4141 0.30481 22.6719 0.187622C22.0078 0.0782471 19.1328 -0.0155029 18.5938 0.0469971Z" fill="#4C4C4C"/>
<path d="M34.0937 7.1797C33.6093 7.39845 33.3984 7.75002 33.3984 8.33595C33.3984 8.75001 33.4297 8.85158 33.6562 9.15626C36.875 13.4375 38.0781 18.1719 37.1875 23.1094C36.3203 27.9219 33.4297 32.1797 29.2578 34.8047C26.8125 36.3438 23.8203 37.2578 20.7968 37.3906L19.8047 37.4375L21.2265 36.0391C22.0078 35.2735 22.6875 34.5703 22.7265 34.4766C22.7734 34.3828 22.8125 34.1172 22.8125 33.8906C22.8125 33.3985 22.625 33.0391 22.25 32.8125C21.9062 32.6016 21.2187 32.6016 20.8984 32.8047C20.5937 33 15.9609 37.5 15.7734 37.7813C15.5547 38.1094 15.5703 38.8047 15.8047 39.1406C16.0703 39.5469 16.3984 39.6875 17.289 39.8125C23.5625 40.6563 29.789 38.586 34.1875 34.1875C37.125 31.2422 39.0156 27.5703 39.7734 23.3047C40.0078 21.9922 40.0703 19.125 39.8906 17.6563C39.4609 14.1328 38.0937 10.7422 35.9531 7.90627C35.3203 7.06252 34.7968 6.85939 34.0937 7.1797Z" fill="#4C4C4C"/>
<path d="M12.6953 11.883C11.3828 11.9846 10.3516 12.4533 9.45312 13.3596C8.48438 14.3283 8.08594 15.3674 8.14062 16.8518C8.15625 17.508 8.19531 17.6799 8.32812 17.8674C8.89844 18.6408 9.92969 18.6408 10.5 17.8674C10.625 17.7033 10.6641 17.4846 10.7031 16.8127C10.7422 16.1877 10.7969 15.8987 10.9219 15.6565C11.8203 13.9065 15.0938 14.0549 15.9688 15.883C16.3594 16.7033 16.2812 17.9143 15.7891 18.6252C15.4922 19.0549 14.6406 19.8283 13.3594 20.8283C10.5703 23.0002 9.39844 24.2033 8.47656 25.8283C8.17188 26.3518 8.125 26.508 8.125 26.883C8.125 27.3987 8.32031 27.7502 8.75 28.0002C9.01562 28.1565 9.14844 28.1643 13.4375 28.1877C16.5078 28.2033 17.9766 28.1877 18.2578 28.1252C19.1953 27.9221 19.5859 26.8752 19.0078 26.1096C18.6406 25.6174 18.6953 25.6252 15.1016 25.6252H11.8438L12.3828 25.0705C12.6875 24.7658 13.7031 23.8987 14.6484 23.1408C18.125 20.3674 18.7578 19.4377 18.7734 17.0705C18.7812 15.4924 18.3828 14.4768 17.3438 13.4299C16.2109 12.2815 14.5781 11.7346 12.6953 11.883Z" fill="#4C4C4C"/>
<path d="M28.2265 11.875C28.0937 11.9063 27.8906 12 27.789 12.0781C27.5078 12.2891 19.1406 22.4844 19.0469 22.7266C18.9297 23.0313 19.0156 23.7266 19.1953 23.9688C19.2812 24.0859 19.4687 24.25 19.6172 24.3359C19.875 24.4844 20.0469 24.4922 23.5781 24.5156L27.2656 24.5391V25.8359C27.2656 27.3281 27.3594 27.6641 27.8672 27.9766C28.2422 28.2109 28.8672 28.2109 29.2422 27.9766C29.75 27.6641 29.8437 27.3281 29.8437 25.8438V24.5547L30.4297 24.5078C31.1015 24.4609 31.4375 24.3047 31.6953 23.9063C31.9297 23.5625 31.9453 22.8828 31.7187 22.5156C31.4609 22.0938 31.1406 21.9531 30.4531 21.9531H29.8437V17.4063C29.8437 12.9688 29.8437 12.8516 29.6797 12.5313C29.4297 12.0078 28.8203 11.7344 28.2265 11.875ZM27.2422 21.9297C27.2265 21.9453 26.2656 21.9453 25.1094 21.9375L23 21.9141L25.1172 19.3516L27.2265 16.7813L27.25 19.3438C27.2578 20.75 27.2578 21.9141 27.2422 21.9297Z" fill="#4C4C4C"/>
</symbol><symbol viewBox="0 0 69.01566 42.556114" id="icon_bicycle">
<path d="M48.354 0.768528C48.1599 0.948803 48.0073 1.24001 48.0073 1.40642C48.0073 1.55896 48.354 2.97341 48.7839 4.5404C49.2138 6.09353 49.5327 7.39705 49.505 7.41091C49.4079 7.49411 29.7858 11.3769 29.7442 11.3215C29.6749 11.2521 28.5933 8.42321 28.5933 8.31228C28.5933 8.25681 29.0093 8.14587 29.5085 8.06267C30.604 7.86853 31.5054 7.52185 32.4761 6.92556C33.4884 6.30154 34.6671 5.96872 35.8874 5.96872H36.9136V4.84548V3.70837L35.4991 3.77771C33.8489 3.86091 32.7534 4.17986 31.3667 4.99802C29.0093 6.38474 26.6519 6.30154 24.2944 4.72068C23.7259 4.34626 23.2128 4.02732 23.1573 4.02732C23.0603 4.02732 21.937 5.60818 21.937 5.74685C21.937 6.02419 24.8353 7.66052 25.6257 7.82693C26.0556 7.924 26.0972 8.0072 26.9015 10.1427L27.7335 12.3615L27.1649 12.8885C25.5286 14.3861 21.2991 18.0748 21.1604 18.1302C21.0772 18.158 20.6612 17.9916 20.2591 17.742C19.2884 17.1734 17.7769 16.5771 16.5843 16.272C15.253 15.9531 11.9526 15.9392 10.6491 16.272C8.11143 16.9099 6.10068 18.047 4.24248 19.8914C2.39814 21.7496 1.26104 23.7742 0.623145 26.298C0.290332 27.6154 0.290332 30.9158 0.623145 32.2332C1.24717 34.7154 2.39814 36.7677 4.18701 38.5705C6.5999 41.025 9.48428 42.3424 12.8679 42.5365C19.5796 42.9248 25.5841 38.1545 26.6935 31.5259L26.8737 30.4443L28.0802 30.4027C29.037 30.375 29.2866 30.4027 29.2866 30.5552C29.2866 31.0129 30.2989 32.7324 30.8952 33.2732C31.4776 33.814 33.0169 34.6738 33.419 34.6738C33.5438 34.6738 33.5854 35.0066 33.5854 35.8525V37.0312H31.3667H29.1479V38.1406V39.25H32.1294C35.1247 39.25 35.1247 39.25 35.4575 38.9033C35.7903 38.5843 35.8042 38.5011 35.8042 36.6152C35.8042 35.0621 35.8458 34.6738 35.9983 34.6738C36.0954 34.6738 36.6224 34.4519 37.1493 34.1884C38.3419 33.5922 39.1462 32.7601 39.7286 31.5121C40.1308 30.6662 40.1724 30.4582 40.1724 29.2656C40.1724 28.073 40.1308 27.8511 39.7425 27.0468C39.2155 25.9375 38.6331 25.258 37.7317 24.6617L37.0384 24.2179L37.704 23.5662C39.9505 21.3336 50.5866 11.5433 50.6698 11.6265C50.7253 11.682 50.8224 11.9316 50.864 12.1812C50.9472 12.625 50.9472 12.625 50.3786 12.625C49.9487 12.625 49.713 12.7082 49.4634 12.9717C49.0335 13.3877 49.0335 13.4847 49.4772 15.5648C49.8378 17.215 49.8378 17.2705 49.5882 17.4369C49.4356 17.5478 48.8532 17.9361 48.2708 18.3105C44.5267 20.7511 42.2247 25.466 42.502 30.0976C42.7101 33.4119 44.0413 36.2963 46.4681 38.6953C48.2708 40.4842 50.3231 41.6351 52.8054 42.2592C54.1228 42.592 57.4231 42.592 58.7405 42.2592C61.306 41.6213 63.2335 40.5258 65.1333 38.6259C67.0331 36.7261 68.1286 34.7986 68.7665 32.2332C69.0993 30.9158 69.0993 27.6154 68.7665 26.298C67.7681 22.332 65.1749 19.0732 61.5972 17.3398C60.1966 16.6742 59.3784 16.4107 57.5896 16.1056L56.2583 15.8838L55.9671 14.5109C55.5927 12.8052 55.4263 12.625 54.1644 12.625H53.2907L53.1243 12.0287C53.0411 11.7097 52.4448 9.51872 51.8069 7.17517C51.169 4.83162 50.6421 2.84861 50.6421 2.77927C50.6421 2.69607 51.9456 2.6406 53.9702 2.6406H57.3122L57.645 2.98728C58.1026 3.43103 58.1026 4.06892 57.645 4.51267C57.3261 4.84548 57.2429 4.85935 55.4263 4.85935H53.5542V5.96872V7.0781H55.4401C57.7976 7.0781 58.269 6.95329 59.1704 6.03806C60.155 5.06736 60.4323 4.02732 60.044 2.7238C59.8222 1.96111 58.6712 0.810131 57.9085 0.588253C57.5063 0.477318 55.9948 0.421848 53.0134 0.421848H48.6868L48.354 0.768528ZM49.1167 9.7822C49.1167 9.80993 45.8024 12.9439 41.7532 16.7297C36.4421 21.6802 34.3481 23.5662 34.2788 23.4275C34.0847 23.0808 30.5347 13.5541 30.5763 13.5125C30.604 13.4847 34.7642 12.625 39.8396 11.6127C44.9011 10.5865 49.0612 9.7406 49.089 9.72673C49.1028 9.72673 49.1167 9.7406 49.1167 9.7822ZM28.9815 15.6758L29.2589 16.4523L22.3392 22.3043L15.4194 28.1701L14.3517 28.1285L13.2978 28.0869L20.897 21.389C25.071 17.7004 28.5378 14.7328 28.5933 14.8021C28.6487 14.8576 28.829 15.2597 28.9815 15.6758ZM55.1351 21.2365C55.8839 24.7449 56.5356 27.7402 56.5634 27.8927C56.6327 28.1424 56.5495 28.1562 55.5372 28.1562H54.4417L53.0688 21.7357C52.32 18.2134 51.6683 15.2181 51.6405 15.0795C51.5851 14.8715 51.696 14.8437 52.6667 14.8437H53.7622L55.1351 21.2365ZM15.364 18.3244C16.4733 18.5185 18.1513 19.0732 18.7892 19.4615L19.33 19.7943L18.4563 20.557L17.5966 21.3336L17.028 21.084C13.7692 19.6972 9.92803 20.4599 7.37646 23.0254C3.90967 26.4922 3.88193 32.0252 7.30713 35.4365C10.5798 38.6953 15.2946 39.042 18.9833 36.2963C20.5503 35.1314 21.8538 33.0929 22.2282 31.2347L22.4085 30.375H23.5456H24.6827L24.5024 31.3041C23.92 34.2855 22.1728 36.8925 19.6073 38.5705C17.7491 39.7908 16.0296 40.29 13.6167 40.29C11.2038 40.29 9.48428 39.7908 7.62607 38.5705C4.60303 36.5875 2.80029 33.4951 2.56455 29.8758C2.1624 23.6494 7.18232 18.2828 13.4919 18.1857C14.0604 18.1857 14.9063 18.2412 15.364 18.3244ZM59.5171 18.8652C61.7774 19.6834 63.7604 21.2504 65.0778 23.275C66.2981 25.147 66.7974 26.8527 66.7974 29.2656C66.7974 32.3996 65.7573 34.9234 63.594 37.0867C61.4308 39.25 58.9069 40.29 55.7729 40.29C53.3601 40.29 51.6405 39.7908 49.7823 38.5705C47.3556 36.9896 45.7886 34.7847 44.9843 31.831C44.6653 30.6523 44.6792 27.8511 45.012 26.5615C45.6915 23.9267 47.3972 21.5277 49.6437 20.0439C50.3509 19.5724 50.3925 19.6002 50.6282 20.8898L50.7946 21.7912L49.713 22.859C49.1167 23.4552 48.4233 24.2873 48.1737 24.7172C46.1075 28.2256 46.6345 32.6215 49.4634 35.4365C51.169 37.1283 52.9856 37.9603 55.2876 38.099C57.8114 38.2377 60.155 37.3502 61.93 35.5752C63.6356 33.8834 64.4677 32.0668 64.6063 29.7509C64.856 25.5076 62.2073 21.9299 57.8669 20.6402L57.2429 20.4599L57.0071 19.3644L56.7714 18.2689L57.5757 18.3521C58.0194 18.4076 58.8931 18.6295 59.5171 18.8652ZM31.2142 21.6248C32.0601 23.899 32.1849 24.3427 32.0046 24.4398C30.9091 25.05 29.8968 26.2703 29.4669 27.4767L29.2173 28.1701L28.0386 28.1285L26.8599 28.0869L26.7628 27.2549C26.6241 26.2287 26.222 24.8558 25.6812 23.6633L25.279 22.748L26.6935 21.5416C27.47 20.8759 28.5378 19.9746 29.0647 19.517C29.5917 19.0732 30.0632 18.7543 30.1187 18.8236C30.1741 18.8791 30.6595 20.141 31.2142 21.6248ZM15.4056 22.8451C15.7106 22.9699 15.5165 23.164 12.7708 25.5769C11.1345 27.0191 9.66455 28.3365 9.49814 28.5306C9.06826 28.9744 9.08213 29.5984 9.52588 30.0283L9.85869 30.375H15.0173H20.1759L20.0788 30.8187C19.9124 31.6924 19.2052 32.9543 18.4286 33.7863C17.5688 34.7293 16.4595 35.381 15.2114 35.7138C11.7308 36.6152 8.09756 34.4103 7.16846 30.8603C6.28096 27.4213 8.43037 23.8158 11.9665 22.8174C12.7569 22.5955 14.7677 22.6093 15.4056 22.8451ZM58.8515 23.3859C60.4046 24.1763 61.7497 25.882 62.2212 27.6709C63.4554 32.4273 58.9347 36.948 54.1782 35.7138C50.6282 34.7847 48.4233 31.1515 49.3247 27.6986C49.4356 27.2549 49.6853 26.5892 49.8794 26.2009C50.2954 25.3967 51.1968 24.3427 51.3354 24.5092C51.3909 24.5646 51.6821 25.7711 51.9733 27.1855C52.3894 29.1963 52.5696 29.8203 52.8192 30.056C53.1104 30.3611 53.2075 30.375 55.7729 30.375C58.3938 30.375 58.4216 30.375 58.7544 30.0283C58.9485 29.848 59.1011 29.5707 59.1011 29.4181C59.1011 29.2656 58.8237 27.8234 58.4771 26.2148C58.1304 24.6062 57.853 23.2334 57.853 23.164C57.853 22.9422 58.0888 22.9976 58.8515 23.3859ZM23.8645 25.0916C24.2112 25.9791 24.5718 27.3519 24.5718 27.8373C24.5718 28.1424 24.5163 28.1562 23.4763 28.1562H22.3808L22.2837 27.5045C22.2282 27.1439 22.0896 26.6031 21.9647 26.298L21.7429 25.7572L22.5749 25.0222C23.0187 24.6062 23.4208 24.2734 23.4624 24.2734C23.504 24.2734 23.6843 24.634 23.8645 25.0916ZM35.721 26.1039C36.4837 26.3258 37.6347 27.4767 37.8565 28.2394C38.2032 29.4043 37.9813 30.4582 37.2187 31.3457C36.8165 31.831 36.137 32.3164 35.8735 32.3164C35.8319 32.3164 35.8042 31.3734 35.8042 30.2363V28.1562H34.6948H33.5854V30.2363C33.5854 31.3734 33.5577 32.3164 33.5161 32.3164C33.2526 32.3164 32.5731 31.831 32.171 31.3457C31.0062 30.0006 31.1032 28.2672 32.4067 26.9775C33.3774 25.9929 34.4175 25.7295 35.721 26.1039ZM20.0511 27.5461C20.2452 28.0453 20.1481 28.1562 19.5103 28.1562H18.8862L19.33 27.7402C19.8569 27.2687 19.9401 27.241 20.0511 27.5461Z" fill="#4C4C4C"/>
</symbol><symbol viewBox="0 0 22.666666 25" id="icon_calendar">
<path d="M1.3335 11.667H22.6668" stroke="#F57520" stroke-width="1.5" stroke-linecap="round" stroke-linejoin="round"/>
<path d="M1.3335 6.33366V22.3337C1.3335 23.8065 2.5274 25.0003 4.00016 25.0003H20.0002C21.473 25.0003 22.6668 23.8065 22.6668 22.3337V11.667V6.33366C22.6668 4.8609 21.473 3.66699 20.0002 3.66699H4.00016C2.5274 3.66699 1.3335 4.8609 1.3335 6.33366Z" stroke="#F57520" stroke-width="1.5" stroke-linecap="round" stroke-linejoin="round"/>
<path d="M16 1V6.33333" stroke="#F57520" stroke-width="1.5" stroke-linecap="round" stroke-linejoin="round"/>
<path d="M8 1V6.33333" stroke="#F57520" stroke-width="1.5" stroke-linecap="round" stroke-linejoin="round"/>
</symbol><symbol viewBox="0 0 20.988 25.814667" id="icon_cursor">
<path d="M17.7373 25.8148L20.9877 1.51823L1.57145 16.4815L11.6544 17.684L17.7373 25.8148Z" stroke="#F57520" stroke-width="1.5" stroke-linecap="round" stroke-linejoin="round"/>
</symbol><symbol viewBox="0 0 39.988277 33.480667" id="icon_diamond">
<path d="M7.16383 0.695312C6.80445 0.914062 6.99195 0.625 3.20289 6.72656C0.0544531 11.7891 0.0466406 11.7969 0.0153906 12.2734C-0.000234438 12.6562 0.0232031 12.7969 0.171641 13.0234C0.273203 13.1797 4.59352 17.8125 9.78102 23.3125C16.5154 30.4531 19.2888 33.3359 19.4607 33.3984C19.781 33.5078 20.2185 33.5078 20.5388 33.3984C20.7107 33.3359 23.4841 30.4531 30.2185 23.3125C35.406 17.8125 39.7263 13.1797 39.8279 13.0234C39.9763 12.7969 39.9998 12.6562 39.9841 12.2734C39.9529 11.7969 39.9451 11.7812 37.117 7.23438C32.9295 0.507812 33.1795 0.890625 32.8279 0.6875L32.5154 0.515625H19.992H7.4607L7.16383 0.695312ZM12.4998 3.26562C12.492 3.32031 12.1482 5.07031 11.7341 7.15625L10.9685 10.9453L7.35914 10.9688L3.74977 10.9844L4.12477 10.3828C4.3357 10.0469 5.42945 8.28906 6.55445 6.46875L8.60914 3.17188H10.5545C12.0623 3.17188 12.4998 3.19531 12.4998 3.26562ZM24.7185 3.30469C24.7888 3.53906 26.3279 10.7969 26.3279 10.8906C26.3279 10.9609 24.742 10.9844 20.0388 10.9844C16.5779 10.9844 13.7498 10.9609 13.7498 10.9219C13.742 10.8906 14.0857 9.13281 14.5076 7.01562L15.2732 3.17188H19.9763C24.3826 3.17188 24.6795 3.17969 24.7185 3.30469ZM33.8123 7.05469L36.2263 10.9453L32.7107 10.9688C30.7732 10.9766 29.1795 10.9688 29.156 10.9453C29.1013 10.8984 27.5076 3.50781 27.4998 3.30469C27.4998 3.17969 27.6404 3.17188 29.4451 3.17188H31.3904L33.8123 7.05469ZM13.6404 19.8906L16.0935 26.0234L15.6326 25.5547C15.1873 25.0938 5.07008 14.3438 4.69508 13.9297L4.49977 13.7188L7.84352 13.7344L11.1873 13.7578L13.6404 19.8906ZM25.906 13.8516C25.492 14.9609 20.0388 28.4062 20.0076 28.4062C19.9763 28.4062 18.6326 25.1016 17.0154 21.0625L14.0779 13.7188H20.0154C25.6404 13.7188 25.9529 13.7266 25.906 13.8516ZM35.3045 13.9297C34.9138 14.3672 24.8045 25.1016 24.3982 25.5156L23.9763 25.9453L24.1404 25.5156C24.4763 24.6484 28.8357 13.8438 28.8748 13.7812C28.8982 13.75 30.3982 13.7188 32.2029 13.7188H35.492L35.3045 13.9297Z" fill="#4C4C4C"/>
</symbol><symbol viewBox="0 0 69.085335 68.89066" id="icon_equipment">
<path d="M30.604 0.456055C30.2989 0.747269 30.2573 0.913673 30.2573 1.69024C30.2573 2.52227 30.2296 2.60547 29.9522 2.66094C29.772 2.70254 28.9815 2.86895 28.1772 3.02148C27.3729 3.18789 26.5825 3.3543 26.4022 3.3959C26.1526 3.45137 26.0556 3.38203 25.8753 2.93829C25.5563 2.16172 25.2929 1.91211 24.7659 1.91211C24.1003 1.91211 18.4841 4.31113 18.0958 4.76875C17.7353 5.1709 17.6937 5.57305 17.9849 6.07227C18.0958 6.26641 18.179 6.51602 18.1929 6.64082C18.1929 6.80723 15.8216 8.56836 15.2392 8.81797C15.1837 8.8457 14.8925 8.65156 14.5874 8.37422C13.589 7.47285 13.5058 7.51445 10.6075 10.4127C7.70928 13.3109 7.66768 13.3941 8.56904 14.3926C8.84639 14.6977 9.04053 14.9889 9.01279 15.0443C8.76318 15.6268 7.00205 17.998 6.83564 17.998C6.71084 17.9842 6.46123 17.901 6.26709 17.79C5.76787 17.4988 5.36572 17.5404 4.96357 17.8871C4.54756 18.2615 2.10693 23.8777 2.10693 24.4463C2.10693 25.0287 2.35654 25.3477 3.03604 25.6389C3.57686 25.8607 3.64619 25.9578 3.57686 26.2213C3.53525 26.3877 3.36885 27.1781 3.21631 27.9824C3.0499 28.7867 2.89736 29.5771 2.85576 29.7436C2.80029 30.0348 2.71709 30.0625 1.88506 30.0625C1.1085 30.0625 0.94209 30.1041 0.650879 30.4092L0.304199 30.742V34.5V38.258L0.650879 38.5908C0.94209 38.8959 1.1085 38.9375 1.88506 38.9375C2.71709 38.9375 2.80029 38.9652 2.85576 39.2426C2.89736 39.4229 3.0499 40.2133 3.21631 41.0176C3.36885 41.8219 3.53525 42.6123 3.57686 42.7926C3.64619 43.0561 3.57686 43.1393 3.13311 43.3195C2.35654 43.6385 2.10693 43.902 2.10693 44.4289C2.10693 45.0945 4.50596 50.7107 4.96357 51.099C5.36572 51.4596 5.76787 51.5012 6.26709 51.21C6.46123 51.099 6.71084 51.0158 6.83564 51.002C7.00205 51.002 8.76318 53.3732 9.01279 53.9557C9.04053 54.0111 8.84639 54.3023 8.56904 54.6074C7.66768 55.6059 7.70928 55.6891 10.6075 58.5873C13.5058 61.4855 13.589 61.5271 14.5874 60.6258C14.8925 60.3484 15.1837 60.1543 15.2392 60.182C15.8216 60.4316 18.1929 62.1928 18.1929 62.3592C18.179 62.484 18.0958 62.7336 17.9849 62.9277C17.6937 63.427 17.7353 63.8291 18.0958 64.2313C18.4841 64.6889 24.1003 67.0879 24.7659 67.0879C25.2929 67.0879 25.5563 66.8383 25.8753 66.0617C26.0556 65.618 26.1526 65.5486 26.4022 65.6041C26.5825 65.6457 27.3729 65.8121 28.1772 65.9646C28.9815 66.1311 29.772 66.2975 29.9522 66.3391C30.2296 66.3945 30.2573 66.4777 30.2573 67.3098C30.2573 68.0863 30.2989 68.2527 30.604 68.5439L30.9368 68.8906H34.6948H38.4528L38.7856 68.5439C39.0907 68.2527 39.1323 68.0863 39.1323 67.3098C39.1323 66.4777 39.1601 66.3945 39.4513 66.3391C39.6177 66.2975 40.3804 66.1449 41.1569 65.9924C41.9196 65.8398 42.7101 65.6734 42.9181 65.6318C43.2509 65.5348 43.3202 65.5902 43.5144 66.0617C43.8333 66.8521 44.0968 67.0879 44.6376 67.0879C45.3032 67.0879 50.8917 64.6889 51.3077 64.2313C51.6544 63.8291 51.696 63.427 51.4048 62.9277C51.2938 62.7336 51.2106 62.484 51.1968 62.3592C51.1968 62.1928 53.5681 60.4316 54.1505 60.182C54.206 60.1543 54.4972 60.3484 54.8022 60.6258C55.8007 61.5271 55.8839 61.4855 58.7821 58.5873C61.6804 55.6891 61.722 55.6059 60.8206 54.6074C60.5433 54.3023 60.3491 54.0111 60.3769 53.9557C60.6265 53.3732 62.3876 51.002 62.554 51.002C62.6788 51.0158 62.9284 51.099 63.1226 51.21C63.6218 51.5012 64.0239 51.4596 64.4261 51.1129C64.8837 50.6969 67.2827 45.1084 67.2827 44.4428C67.2827 43.902 67.047 43.6385 66.2565 43.3195C65.8128 43.1393 65.7435 43.0561 65.8128 42.7926C65.8544 42.6123 66.0208 41.8219 66.1733 41.0176C66.3397 40.2133 66.4923 39.4229 66.5339 39.2426C66.5894 38.9652 66.6726 38.9375 67.5046 38.9375C68.2812 38.9375 68.4476 38.8959 68.7388 38.5908L69.0854 38.258V34.5V30.742L68.7388 30.4092C68.4476 30.1041 68.2812 30.0625 67.5046 30.0625C66.6726 30.0625 66.5894 30.0348 66.5339 29.7436C66.4923 29.5771 66.3397 28.7867 66.1733 27.9824C66.0208 27.1781 65.8544 26.3877 65.8128 26.2213C65.7435 25.9578 65.8128 25.8607 66.3536 25.6389C67.0331 25.3477 67.2827 25.0287 67.2827 24.4602C67.2827 23.8916 64.8282 18.2477 64.4261 17.8871C64.0239 17.5404 63.6218 17.4988 63.1226 17.79C62.9284 17.901 62.6788 17.9842 62.554 17.998C62.3876 17.998 60.6265 15.6268 60.3769 15.0443C60.3491 14.9889 60.5433 14.6977 60.8206 14.3926C61.722 13.3941 61.6804 13.3109 58.7821 10.4127C55.8839 7.51445 55.8007 7.47285 54.8022 8.37422C54.4972 8.65156 54.206 8.8457 54.1505 8.81797C53.5681 8.56836 51.1968 6.80723 51.1968 6.64082C51.2106 6.51602 51.2938 6.26641 51.4048 6.07227C51.696 5.57305 51.6544 5.1709 51.3077 4.76875C50.9056 4.31113 45.2894 1.91211 44.6237 1.91211C44.0968 1.91211 43.8333 2.16172 43.5144 2.93829C43.3202 3.40977 43.2509 3.46523 42.9181 3.36816C42.7101 3.32656 41.9196 3.16016 41.1569 3.00762C40.3804 2.85508 39.6177 2.70254 39.4513 2.66094C39.1601 2.60547 39.1323 2.52227 39.1323 1.69024C39.1323 0.913673 39.0907 0.747269 38.7856 0.456055L38.4528 0.109375H34.6948H30.9368L30.604 0.456055ZM36.9136 3.10469C36.9136 4.43594 37.08 4.57461 39.1046 4.87969C39.8673 5.00449 41.3095 5.2957 42.294 5.53144C44.0413 5.9752 44.1106 5.9752 44.4712 5.73945C44.6792 5.60078 44.9427 5.26797 45.0536 4.99063C45.1646 4.71328 45.2755 4.46368 45.2894 4.44981C45.331 4.4082 48.881 5.91973 48.9642 6.0168C49.0058 6.04453 48.9226 6.29414 48.7978 6.55762C48.3263 7.52832 48.5759 7.94434 50.1845 8.87344C50.7808 9.22012 51.8624 9.95508 52.5835 10.4959C54.1366 11.6607 54.511 11.7301 55.2876 11.0367L55.7868 10.6068L57.1874 12.0074L58.588 13.408L58.1581 13.9072C57.4647 14.6838 57.5341 15.0721 58.6851 16.5975C59.212 17.3047 59.947 18.3863 60.3075 18.9965C60.9731 20.1336 61.4585 20.6328 61.8745 20.6328C62.0132 20.6328 62.346 20.5357 62.6372 20.4109C62.9146 20.3 63.178 20.2168 63.1919 20.2445C63.3583 20.4109 64.7728 23.8916 64.6896 23.9193C64.1626 24.0996 63.5802 24.5156 63.3999 24.8207C63.2196 25.1535 63.2196 25.2783 63.4415 26.0688C63.7188 27.0672 64.3151 29.9377 64.4399 30.95C64.5786 31.9484 64.9669 32.2812 66.0347 32.2812H66.8667V34.5V36.7188H66.0347C64.9669 36.7188 64.5786 37.0516 64.4399 38.05C64.3151 39.0623 63.7188 41.9328 63.4415 42.9312C63.2196 43.7217 63.2196 43.8465 63.3999 44.1793C63.5802 44.4844 64.1626 44.9004 64.6896 45.0807C64.7728 45.1084 63.3583 48.5891 63.1919 48.7555C63.178 48.7832 62.9146 48.7 62.6372 48.5891C62.346 48.4643 62.0132 48.3672 61.8745 48.3672C61.4585 48.3672 60.9731 48.8664 60.3075 50.0035C59.947 50.6137 59.212 51.6953 58.6851 52.4025C57.5341 53.9279 57.4647 54.3162 58.1581 55.0928L58.588 55.592L57.1874 56.9926L55.7868 58.3932L55.2876 57.9633C54.511 57.2699 54.1366 57.3531 52.5974 58.4902C51.8901 59.0172 50.8085 59.7521 50.1983 60.1127C48.5759 61.0695 48.3263 61.4717 48.7978 62.4424C48.9226 62.7059 49.0058 62.9555 48.9642 62.9832C48.7978 63.1635 45.3032 64.5779 45.2755 64.4947C45.0952 63.9678 44.6792 63.3854 44.3741 63.2051C44.0413 63.0248 43.9165 63.0248 43.1261 63.2467C42.1276 63.524 39.2571 64.1203 38.2448 64.2451C37.2464 64.3838 36.9136 64.7721 36.9136 65.8398V66.6719H34.6948H32.4761V65.8398C32.4761 64.7721 32.1433 64.3838 31.1448 64.2451C29.9245 64.0787 28.9677 63.8984 27.1095 63.4547C25.3483 63.0248 25.279 63.0248 24.9185 63.2605C24.7104 63.3992 24.447 63.732 24.336 64.0094C24.2251 64.2867 24.1142 64.5363 24.1003 64.5502C24.0587 64.5918 20.5087 63.0803 20.4255 62.9832C20.3839 62.9555 20.4671 62.7059 20.5919 62.4424C21.0634 61.4717 20.8138 61.0695 19.1913 60.1127C18.5812 59.7521 17.4995 59.0172 16.7923 58.4902C15.2669 57.3393 14.8786 57.2699 14.1021 57.9633L13.6028 58.3932L12.2022 56.9926L10.8017 55.592L11.2315 55.0928C11.9249 54.3162 11.8556 53.9279 10.7046 52.4025C10.1776 51.6953 9.44268 50.6137 9.08213 50.0035C8.12529 48.3811 7.72314 48.1314 6.75244 48.6029C6.48896 48.7277 6.23936 48.8109 6.21162 48.7693C6.11455 48.6861 4.60303 45.1361 4.64463 45.0945C4.6585 45.0807 4.90811 44.9697 5.18545 44.8588C5.46279 44.7479 5.79561 44.4844 5.93428 44.2764C6.17002 43.9158 6.17002 43.8465 5.72627 42.0992C5.49053 41.1146 5.19932 39.6725 5.07451 38.9098C4.76943 36.8852 4.63076 36.7188 3.29951 36.7188H2.52295V34.5V32.2812H3.35498C4.42275 32.2812 4.81104 31.9484 4.94971 30.95C5.07451 29.9654 5.65693 27.0949 5.94814 26.0688C6.17002 25.2783 6.17002 25.1535 5.98975 24.8207C5.80947 24.5156 5.22705 24.0996 4.7001 23.9193C4.61689 23.8916 6.03135 20.3971 6.21162 20.2307C6.23936 20.1891 6.48896 20.2723 6.75244 20.3971C7.72314 20.8686 8.12529 20.6189 9.08213 18.9965C9.44268 18.3863 10.1776 17.3047 10.7046 16.5975C11.8417 15.0582 11.9249 14.6838 11.2315 13.9072L10.8017 13.408L12.2022 12.0074L13.6028 10.6068L14.1021 11.0367C14.8786 11.7301 15.2669 11.6607 16.7646 10.5375C17.4579 10.0244 18.4425 9.35879 18.9556 9.05371C20.1204 8.37422 20.8276 7.72246 20.8276 7.33418C20.8276 7.18164 20.7167 6.83496 20.5919 6.55762C20.4671 6.29414 20.3839 6.04453 20.4255 6.0168C20.5919 5.83652 24.0864 4.42207 24.1142 4.50527C24.2944 5.03223 24.7104 5.61465 25.0155 5.79492C25.3483 5.9752 25.4731 5.9752 26.2636 5.75332C27.262 5.47598 30.1325 4.87969 31.1448 4.75488C32.1433 4.61621 32.4761 4.22793 32.4761 3.16016V2.32812H34.6948H36.9136V3.10469Z" fill="#4C4C4C"/>
<path d="M33.5855 9.16465C32.906 9.38652 31.7411 10.5791 31.5331 11.2863C31.1448 12.5898 31.4222 13.6299 32.4067 14.6006C33.114 15.3217 33.8212 15.6406 34.6948 15.6406C35.5685 15.6406 36.2757 15.3217 36.9829 14.6006C38.3419 13.2555 38.3835 11.5221 37.0939 10.0938C36.1925 9.09531 34.9028 8.74863 33.5855 9.16465ZM35.4575 11.5498C35.6794 11.7578 35.8042 12.049 35.8042 12.3125C35.8042 12.576 35.6794 12.8672 35.4575 13.0752C34.778 13.7686 33.5855 13.2832 33.5855 12.3125C33.5855 11.7439 34.1263 11.2031 34.6948 11.2031C34.9583 11.2031 35.2495 11.3279 35.4575 11.5498Z" fill="#4C4C4C"/>
<path d="M26.0971 10.4959C13.1035 15.1691 6.11444 29.5217 10.4826 42.543C11.4256 45.3164 12.1328 46.5645 12.7984 46.5645C13.1174 46.5645 26.7072 41.3781 27.1648 41.073C27.7611 40.6986 27.7195 40.2826 26.943 38.7572C26.1525 37.2041 25.8197 35.9422 25.8197 34.5C25.8197 30.7143 28.3435 27.2475 32.0045 26.0549C32.8781 25.7637 33.308 25.3754 33.308 24.8623C33.308 24.5711 29.342 11.4805 28.9953 10.6068C28.6625 9.80254 28.0939 9.77481 26.0971 10.4959ZM28.9953 18.109C29.9521 21.2152 30.7426 23.8223 30.7703 23.9055C30.8119 24.0025 30.3682 24.2938 29.7996 24.5711C24.5578 27.0811 22.2558 33.2936 24.4885 38.8404L24.8213 39.6447L24.5301 39.7834C24.3637 39.8527 21.7982 40.8373 18.8445 41.9744L13.4502 44.0406L13.1174 43.2779C12.9371 42.8619 12.5904 41.8912 12.3685 41.1146C8.98495 29.5217 14.9201 17.3602 26.1664 12.8117C26.624 12.6314 27.0678 12.465 27.1371 12.465C27.2203 12.465 28.0523 15.0027 28.9953 18.109Z" fill="#4C4C4C"/>
<path d="M40.7825 10.0938C40.6577 10.1631 40.4913 10.3988 40.3942 10.6068C40.0614 11.4527 36.0815 24.5711 36.0815 24.8484C36.0815 25.3477 36.4698 25.7359 37.2325 25.9717C39.5761 26.7482 41.5868 28.44 42.5853 30.5063C43.9442 33.3074 43.9026 35.9006 42.4466 38.7434C41.67 40.2688 41.6284 40.6986 42.2247 41.073C42.6407 41.3365 56.2583 46.5645 56.5356 46.5645C57.0349 46.5645 57.3538 46.2039 57.9224 44.9975C61.7913 36.7465 60.6403 26.4848 54.9964 19.0797C54.0396 17.8316 51.8485 15.5852 50.6421 14.6145C48.4095 12.8117 45.7886 11.3557 43.1815 10.4543C41.7116 9.94122 41.1708 9.85801 40.7825 10.0938ZM43.5421 12.9504C46.371 14.1014 48.9226 15.8348 51.1968 18.1367C54.83 21.7977 57.1042 26.457 57.7837 31.5602C58.1165 34.0979 58.0194 36.5939 57.4925 39.2842C57.2567 40.4213 56.4524 43.0145 56.1058 43.6662L55.9255 44.0406L50.545 41.9744C47.5913 40.8373 45.0259 39.8527 44.8595 39.7834L44.5683 39.6447L44.9011 38.8404C47.1337 33.2936 44.8595 27.1643 39.6038 24.5572C39.0353 24.2799 38.5915 23.9887 38.6192 23.9055C38.647 23.8223 39.4374 21.2152 40.3942 18.109C41.3372 15.0027 42.1692 12.4512 42.2247 12.4512C42.294 12.4512 42.8765 12.673 43.5421 12.9504Z" fill="#4C4C4C"/>
<path d="M33.0448 28.0659C29.5364 29.0088 27.3592 32.6559 28.2467 36.095C29.1758 39.645 32.809 41.8498 36.2897 40.9485C39.8397 40.0194 42.0446 36.3862 41.1432 32.9332C40.2141 29.3416 36.5254 27.1229 33.0448 28.0659ZM36.7889 30.6313C37.718 31.1305 38.1479 31.5743 38.6887 32.6143C38.9938 33.2106 39.0493 33.5018 39.0493 34.5002C39.0631 35.5819 39.0215 35.7483 38.5916 36.5526C38.0647 37.5233 37.6209 37.9393 36.5809 38.494C35.9846 38.7991 35.6934 38.8545 34.695 38.8545C33.6965 38.8545 33.4053 38.7991 32.809 38.494C31.769 37.9393 31.3252 37.5233 30.7983 36.5526C30.3684 35.7483 30.3268 35.5819 30.3407 34.5002C30.3407 33.1135 30.6735 32.2815 31.5748 31.3801C32.9616 29.9934 35.0278 29.7022 36.7889 30.6313Z" fill="#4C4C4C"/>
<path d="M28.3298 41.808C28.1356 41.9744 27.1233 44.4289 25.3345 49.0883C23.8507 52.9572 22.6304 56.216 22.6304 56.3408C22.6304 56.8401 22.9909 57.159 24.1974 57.7276C30.6456 60.7506 38.8134 60.7506 45.1784 57.7414C46.3987 57.159 46.7593 56.8401 46.7593 56.3408C46.7593 56.216 45.539 52.9572 44.0552 49.0883C42.2663 44.4289 41.254 41.9744 41.0599 41.808C40.63 41.4613 40.3249 41.5168 39.2155 42.1131C37.6624 42.9729 36.4144 43.2918 34.6948 43.2918C32.9753 43.2918 31.7272 42.9729 30.1741 42.1131C29.0647 41.5168 28.7597 41.4613 28.3298 41.808ZM33.3636 45.469C35.0692 45.6908 36.8442 45.4828 38.4667 44.9004C39.1046 44.6647 39.6731 44.4705 39.7425 44.4428C39.8118 44.4289 40.8519 46.9666 42.0444 50.0729L44.2354 55.7307L43.861 55.911C42.4743 56.6182 39.4097 57.4086 36.9829 57.6721C33.4884 58.0465 28.8567 57.3809 25.9169 56.0774L25.1542 55.7446L27.2204 50.3502C28.3575 47.3965 29.3421 44.8311 29.4114 44.6785L29.5501 44.3735L30.7843 44.8449C31.5608 45.1362 32.5315 45.3719 33.3636 45.469Z" fill="#4C4C4C"/>
<path d="M16.9448 47.993C16.2653 48.2148 15.1005 49.4074 14.8925 50.1146C14.5042 51.4182 14.7816 52.4582 15.7661 53.4289C17.1667 54.8434 18.9417 54.8434 20.3423 53.4289C21.7013 52.0838 21.7429 50.3504 20.4532 48.9221C19.5519 47.9236 18.2622 47.577 16.9448 47.993ZM18.8169 50.3781C19.5103 51.0576 19.0249 52.2502 18.0542 52.2502C17.7907 52.2502 17.4995 52.1254 17.2915 51.9035C17.0696 51.6955 16.9448 51.4043 16.9448 51.1408C16.9448 50.8773 17.0696 50.5861 17.2915 50.3781C17.4995 50.1563 17.7907 50.0314 18.0542 50.0314C18.3177 50.0314 18.6089 50.1563 18.8169 50.3781Z" fill="#4C4C4C"/>
<path d="M50.2261 47.993C49.5466 48.2148 48.3817 49.4074 48.1737 50.1146C47.7855 51.4182 48.0628 52.4582 49.0474 53.4289C50.448 54.8434 52.223 54.8434 53.6235 53.4289C54.9825 52.0838 55.0241 50.3504 53.7345 48.9221C52.8331 47.9236 51.5435 47.577 50.2261 47.993ZM52.0982 50.3781C52.7915 51.0576 52.3062 52.2502 51.3355 52.2502C50.7669 52.2502 50.2261 51.7094 50.2261 51.1408C50.2261 50.5723 50.7669 50.0314 51.3355 50.0314C51.5989 50.0314 51.8901 50.1563 52.0982 50.3781Z" fill="#4C4C4C"/>
</symbol><symbol viewBox="0 0 25 20.333334" id="icon_mail">
<path d="M23.6667 1.66699H2.33333C1.96515 1.66699 1.63181 1.81623 1.39052 2.05751C1.14924 2.29881 1 2.63214 1 3.00033V19.0003C1 19.7367 1.59696 20.3337 2.33333 20.3337H23.6667C24.4031 20.3337 25 19.7367 25 19.0003V3.00033C25 2.63214 24.8508 2.29881 24.6095 2.05751C24.3681 1.81623 24.0348 1.66699 23.6667 1.66699Z" stroke="#F57520" stroke-width="1.5" stroke-linecap="round" stroke-linejoin="round"/>
<path d="M1.39062 2.05762L11.1145 11.7814C12.1558 12.8229 13.8444 12.8229 14.8857 11.7814L24.6096 2.05762" stroke="#F57520" stroke-width="1.5" stroke-linecap="round" stroke-linejoin="round"/>
</symbol><symbol viewBox="0 0 58.538666 68.89066" id="icon_onboard_computer">
<path d="M18.4069 0.261917C17.5472 0.469925 16.2853 1.20489 15.6751 1.87051C15.37 2.20332 14.9124 2.89668 14.6767 3.40977L14.2329 4.33887L14.1913 7.76407L14.1358 11.2031H13.387C12.763 11.2031 12.5688 11.2586 12.2915 11.5498L11.9448 11.8826V21.1875V30.4924L12.2915 30.8252C12.5688 31.1164 12.763 31.1719 13.387 31.1719H14.1497L14.1913 35.7203L14.2329 40.2688L14.746 41.3227C15.37 42.5846 16.1882 43.375 17.464 43.9713C18.3237 44.3734 18.5317 44.415 20.1681 44.4566L21.9292 44.5121V45.2887C21.9292 46.4674 22.1788 47.1053 22.9692 47.8818C23.621 48.5336 24.3837 48.9219 25.0354 48.9219C25.2296 48.9219 25.2573 49.1299 25.2435 50.5443V52.1807L24.3282 52.7631L23.413 53.3594H19.6827H15.9524L15.6196 53.7061C15.3284 53.9834 15.2729 54.1775 15.2729 54.8154V55.5781H8.06201H0.851074V56.6875V57.7969H8.06201H15.2729V60.0156V62.2344H8.06201H0.851074V63.3438V64.4531H8.06201H15.2729V65.2158C15.2729 65.8537 15.3284 66.0479 15.6196 66.3252C15.9386 66.658 16.0218 66.6719 17.8384 66.6719H19.7104V67.4346C19.7104 68.0725 19.7659 68.2666 20.0571 68.5439L20.3899 68.8906H24.1479H27.906L28.2388 68.5439C28.5854 68.2111 28.5854 68.1834 28.5854 65.5625C28.5854 62.9416 28.5854 62.9139 28.2388 62.5811C27.9614 62.2898 27.7673 62.2344 27.1294 62.2344H26.3667V61.4578C26.3667 60.2514 26.6163 59.6135 27.4067 58.8369C28.8073 57.4225 30.5823 57.4225 31.9829 58.8369C32.7733 59.6135 33.0229 60.2514 33.0229 61.4578V62.2344H32.2603C31.6224 62.2344 31.4282 62.2898 31.1509 62.5811C30.8042 62.9139 30.8042 62.9416 30.8042 65.5625C30.8042 68.1834 30.8042 68.2111 31.1509 68.5439L31.4837 68.8906H35.2417H38.9997L39.3325 68.5439C39.6237 68.2666 39.6792 68.0725 39.6792 67.4346V66.6719H41.5513C43.3679 66.6719 43.4511 66.658 43.77 66.3252C44.0612 66.0479 44.1167 65.8537 44.1167 65.2158V64.4531H51.3276H58.5386V63.3438V62.2344H51.3276H44.1167V60.0156V57.7969H51.3276H58.5386V56.6875V55.5781H51.3276H44.1167V54.8154C44.1167 54.1775 44.0612 53.9834 43.77 53.7061L43.4372 53.3594H39.7347H36.0321L35.0892 52.7631L34.1462 52.1807L34.1323 50.5443C34.1323 49.1299 34.1601 48.9219 34.3542 48.9219C35.006 48.9219 35.7687 48.5336 36.4204 47.8818C37.2108 47.1053 37.4604 46.4674 37.4604 45.2887V44.5121L39.2354 44.4566C40.8579 44.415 41.0659 44.3734 41.9257 43.9713C43.2015 43.375 44.0196 42.5846 44.6437 41.3227L45.1567 40.2688L45.1983 35.7203L45.2399 31.1719H46.0026C46.6267 31.1719 46.8208 31.1164 47.0981 30.8252L47.4448 30.4924V21.1875V11.8826L47.0981 11.5498C46.8208 11.2586 46.6267 11.2031 46.0026 11.2031H45.2538L45.1983 7.76407L45.1567 4.325L44.6437 3.2711C44.0196 2.00919 43.2153 1.23262 41.9257 0.622467L40.9966 0.178719L29.9722 0.150986C23.6071 0.137115 18.7259 0.192581 18.4069 0.261917ZM40.7054 2.49454C41.4681 2.71641 42.619 3.86739 42.8409 4.63008C42.9519 5.0045 43.0073 6.25254 43.0073 8.20782V11.2031H41.8979H40.7886V8.22168C40.7886 5.22637 40.7886 5.22637 40.4419 4.89356L40.1091 4.54688H29.6948H19.2806L18.9478 4.89356C18.6011 5.22637 18.6011 5.22637 18.6011 8.22168V11.2031H17.4917H16.3823V8.20782C16.3823 6.25254 16.4378 5.0045 16.5487 4.63008C16.7567 3.92286 17.9216 2.73028 18.6011 2.50841C19.3222 2.28653 39.9288 2.27266 40.7054 2.49454ZM38.5698 9.10918V11.4527L38.1538 11.6191C37.5714 11.8549 36.7116 12.8672 36.5175 13.5328C36.2817 14.2955 36.2817 28.0795 36.5175 28.8422C36.7116 29.5078 37.5714 30.5201 38.1538 30.7559L38.5698 30.9223V33.2658V35.6094H29.6948H20.8198V33.2658V30.9223L21.2358 30.7559C21.8183 30.5201 22.678 29.5078 22.8722 28.8422C23.1079 28.0795 23.1079 14.2955 22.8722 13.5328C22.678 12.8672 21.8183 11.8549 21.2358 11.6191L20.8198 11.4527V9.10918V6.76563H29.6948H38.5698V9.10918ZM20.4731 13.7686L20.8198 14.1014V21.1875V28.2736L20.4731 28.6064C20.1403 28.9531 20.1403 28.9531 17.145 28.9531H14.1636V21.1875V13.4219H17.145C20.1403 13.4219 20.1403 13.4219 20.4731 13.7686ZM45.2261 21.1875V28.9531H42.2446C39.2493 28.9531 39.2493 28.9531 38.9165 28.6064L38.5698 28.2736V21.1875V14.1014L38.9165 13.7686C39.2493 13.4219 39.2493 13.4219 42.2446 13.4219H45.2261V21.1875ZM18.6011 34.1533C18.6011 37.1486 18.6011 37.1486 18.9478 37.4814L19.2806 37.8281H29.6948H40.1091L40.4419 37.4814C40.7886 37.1486 40.7886 37.1486 40.7886 34.1533V31.1719H41.8979H43.0073V35.2766C43.0073 38.1055 42.9519 39.5754 42.8409 39.9637C42.619 40.7264 41.4681 41.8773 40.7054 42.0992C39.8872 42.335 19.5024 42.335 18.6843 42.0992C17.9216 41.8773 16.7706 40.7264 16.5487 39.9637C16.4378 39.5754 16.3823 38.1055 16.3823 35.2766V31.1719H17.4917H18.6011V34.1533ZM35.2417 45.2471C35.2417 45.885 35.1862 46.0791 34.895 46.3564L34.5622 46.7031H29.6948H24.8274L24.4946 46.3564C24.2034 46.0791 24.1479 45.885 24.1479 45.2471V44.4844H29.6948H35.2417V45.2471ZM31.9136 50.1561V51.4041L31.4005 51.307C31.1093 51.2516 30.3466 51.21 29.6948 51.21C29.0431 51.21 28.2804 51.2516 28.003 51.307L27.4761 51.4041V50.1561V48.9219H29.6948H31.9136V50.1561ZM31.1647 53.5119C33.4112 53.9141 35.6161 55.6059 36.6284 57.7137C37.3495 59.2391 37.4604 59.974 37.4604 63.5795V66.6719H35.2417H33.0229V65.5625V64.4531H33.7856C34.4374 64.4531 34.6177 64.3977 34.9228 64.0926C35.2694 63.7459 35.2694 63.732 35.214 61.7768C35.1724 59.9186 35.1446 59.7521 34.7286 58.8785C34.1185 57.5889 33.3419 56.7846 32.08 56.1605C31.0815 55.6752 30.9567 55.6475 29.6948 55.6475C28.4329 55.6475 28.3081 55.6752 27.3097 56.1605C26.0478 56.7846 25.2712 57.5889 24.661 58.8785C24.245 59.7521 24.2173 59.9186 24.1757 61.7768C24.1202 63.732 24.1202 63.7459 24.4669 64.0926C24.772 64.3977 24.9522 64.4531 25.604 64.4531H26.3667V65.5625V66.6719H24.1479H21.9292V63.5795C21.9292 61.8738 21.9985 60.1127 22.0817 59.6551C22.4007 57.8939 23.5239 56.1189 24.9938 54.9957C26.8104 53.609 28.9321 53.1098 31.1647 53.5119ZM20.806 56.6459C19.9739 58.31 19.8214 59.0588 19.7521 61.9293L19.6827 64.4531H18.5872H17.4917V60.0156V55.5781H19.4192H21.3468L20.806 56.6459ZM41.8979 60.0156V64.4531H40.8024H39.7069L39.6376 61.9293C39.5683 59.0727 39.4296 58.3516 38.5837 56.6459L38.0567 55.5781H39.9704H41.8979V60.0156Z" fill="#4C4C4C"/>
<path d="M26.3667 40.0469V41.1562H29.6948H33.0229V40.0469V38.9375H29.6948H26.3667V40.0469Z" fill="#4C4C4C"/>
</symbol><symbol viewBox="0 0 17 25" id="icon_phone">
<path d="M14.3333 1H3.66667C2.19391 1 1 2.19391 1 3.66667V22.3333C1 23.8061 2.19391 25 3.66667 25H14.3333C15.8061 25 17 23.8061 17 22.3333V3.66667C17 2.19391 15.8061 1 14.3333 1Z" stroke="#F57520" stroke-width="1.5" stroke-linecap="round" stroke-linejoin="round"/>
<path d="M9 21.0133V21" stroke="#F57520" stroke-width="1.5" stroke-linecap="round" stroke-linejoin="round"/>
</symbol><symbol viewBox="0 0 39.993668 39.99519" id="icon_settings">
<path d="M17.7342 0.117382C16.6873 0.250195 16.5311 0.29707 16.1795 0.554882C15.7733 0.843945 15.6717 1.05488 15.0077 2.92988C14.703 3.78144 14.4452 4.48457 14.4373 4.49238C14.4217 4.50019 14.0858 4.63301 13.6873 4.79707L12.9608 5.09394L12.1639 4.72676C9.56234 3.50801 9.67953 3.55488 9.17953 3.56269C8.6014 3.56269 8.38265 3.67207 7.42172 4.43769C6.4764 5.19551 5.19515 6.47676 4.43734 7.42207C3.74203 8.29707 3.6014 8.55488 3.5389 9.05488C3.49203 9.48457 3.65609 9.92988 4.57015 11.8439L5.1014 12.9533L4.79672 13.6799C4.63265 14.0861 4.49984 14.4221 4.49203 14.4377C4.48422 14.4455 3.78109 14.7033 2.92953 15.008C2.07797 15.3049 1.24984 15.6252 1.08578 15.7033C0.773279 15.8674 0.452967 16.2268 0.320154 16.5861C0.0232792 17.3674 -0.0939083 20.5471 0.117029 22.2424C0.249842 23.2971 0.312342 23.5158 0.593592 23.8908C0.851404 24.2268 1.13265 24.3596 2.94515 25.0002C3.7889 25.2971 4.48422 25.5549 4.49203 25.5627C4.49984 25.5783 4.6014 25.8283 4.71859 26.133C4.84359 26.4299 4.96859 26.7658 5.01547 26.8752C5.08578 27.0471 4.99984 27.2736 4.39047 28.5549C4.00765 29.3674 3.64828 30.1721 3.59359 30.3439C3.48422 30.6955 3.53109 31.2189 3.71859 31.5861C4.2889 32.6799 6.96859 35.383 8.36703 36.2658C8.6639 36.4533 9.29672 36.5236 9.65609 36.4064C9.82797 36.3518 10.6327 35.9924 11.4452 35.6096C12.7264 35.0002 12.953 34.9143 13.1248 34.9846C13.2342 35.0314 13.5702 35.1564 13.867 35.2814C14.1717 35.3986 14.4217 35.5002 14.4373 35.508C14.4452 35.5158 14.703 36.2111 14.9998 37.0549C15.6405 38.8674 15.7733 39.1486 16.1092 39.4064C16.4842 39.6877 16.6795 39.7424 17.7108 39.883C19.3748 40.1018 22.617 39.9846 23.4217 39.6799C23.7733 39.5471 24.1327 39.2268 24.2967 38.9143C24.3748 38.7502 24.6952 37.9221 24.992 37.0705C25.2967 36.2189 25.5545 35.5158 25.5623 35.508C25.578 35.5002 25.8358 35.3986 26.1327 35.2814C26.4373 35.1564 26.7655 35.0314 26.8748 34.9846C27.0467 34.9143 27.2733 35.0002 28.5545 35.6096C29.3748 35.9924 30.1717 36.3518 30.3436 36.4064C30.703 36.5236 31.3358 36.4533 31.6327 36.2658C33.0311 35.383 35.7108 32.6799 36.2811 31.5861C36.4686 31.2189 36.5155 30.6955 36.4061 30.3439C36.3514 30.1721 35.992 29.3674 35.6092 28.5549C34.9998 27.2736 34.9139 27.0471 34.9842 26.8752C35.0311 26.7658 35.1561 26.4299 35.2811 26.133C35.3983 25.8283 35.4998 25.5783 35.5077 25.5627C35.5155 25.5549 36.2108 25.2971 37.0545 25.0002C38.867 24.3596 39.1483 24.2268 39.4061 23.8908C39.6873 23.5158 39.7498 23.2971 39.8827 22.2424C40.0311 21.0236 40.0311 18.9689 39.8827 17.7424C39.6561 15.9299 39.6405 15.9143 36.7577 14.8908L35.4998 14.4455L35.2733 13.8518C35.1405 13.5236 35.0077 13.1799 34.9764 13.0939C34.9217 12.9689 35.0702 12.5861 35.6092 11.4455C35.992 10.6252 36.3514 9.82832 36.4061 9.65644C36.5155 9.30488 36.4686 8.78144 36.2811 8.41426C35.867 7.60957 33.9061 5.50019 32.578 4.43769C31.617 3.67207 31.3983 3.56269 30.8202 3.56269C30.3202 3.55488 30.4373 3.50801 27.8358 4.72676L27.0389 5.09394L26.3123 4.79707C25.9139 4.63301 25.578 4.50019 25.5623 4.49238C25.5545 4.48457 25.2967 3.78144 24.992 2.92988C24.6952 2.07832 24.3748 1.25019 24.2967 1.08613C24.1327 0.773632 23.7733 0.45332 23.4217 0.320507C22.6483 0.0314445 19.328 -0.0935555 17.7342 0.117382ZM20.9764 3.51582H21.4686L22.0389 5.13301C22.7655 7.18769 22.8358 7.28144 24.1014 7.73457C24.578 7.89863 25.3123 8.20332 25.742 8.40644C26.4295 8.73457 26.5858 8.78144 27.0311 8.78144C27.5077 8.78144 27.6248 8.74238 29.0467 8.06269L30.5623 7.34394L31.1014 7.82051C31.3983 8.08613 31.8748 8.55488 32.1483 8.86738L32.6561 9.43769L31.9373 10.9455C31.2577 12.3752 31.2186 12.4924 31.2186 12.9689C31.2186 13.4143 31.2655 13.5705 31.6092 14.2971C31.828 14.7502 32.1248 15.4689 32.2733 15.8986C32.492 16.5393 32.6014 16.7424 32.8905 17.0393C33.2186 17.3674 33.3514 17.4299 34.867 17.9611L36.4842 18.5314L36.4998 19.133C36.5155 19.7111 36.4842 21.4299 36.453 21.4611C36.4452 21.4689 35.703 21.7424 34.7967 22.0627C32.8045 22.7814 32.6952 22.8674 32.2655 24.1096C32.117 24.5393 31.828 25.2502 31.6092 25.7033C31.2655 26.4299 31.2186 26.5861 31.2186 27.0314C31.2186 27.508 31.2577 27.6252 31.9373 29.0549L32.6639 30.5705L32.4452 30.8127C31.9061 31.4143 31.4139 31.9143 31.0077 32.2736L30.5623 32.6564L29.0545 31.9377C27.617 31.258 27.5155 31.2189 27.0311 31.2189C26.5858 31.2268 26.4217 31.2736 25.703 31.6096C25.2498 31.8283 24.5311 32.1252 24.1014 32.2736C23.4608 32.4924 23.2577 32.6018 22.9608 32.8908C22.6327 33.2189 22.5702 33.3518 22.0389 34.8518L21.4686 36.4611L20.7342 36.5002C20.328 36.5236 19.6717 36.5236 19.2655 36.5002L18.5311 36.4611L17.9608 34.8518C17.4295 33.3518 17.367 33.2189 17.0389 32.8908C16.742 32.6018 16.5389 32.4924 15.8983 32.2736C15.4686 32.1252 14.7498 31.8283 14.2967 31.6096C13.5702 31.2658 13.4217 31.2189 12.9686 31.2189C12.492 31.2189 12.3748 31.2658 10.9452 31.9377L9.43734 32.6564L8.99203 32.2736C8.58578 31.9143 8.09359 31.4143 7.55453 30.8127L7.33578 30.5705L8.06234 29.0549C8.74203 27.6252 8.78109 27.508 8.78109 27.0314C8.78109 26.5861 8.73422 26.4299 8.39047 25.7033C8.17172 25.2502 7.88265 24.5393 7.73422 24.1096C7.30453 22.8674 7.19515 22.7814 5.20297 22.0627C4.29672 21.7424 3.55453 21.4689 3.54672 21.4611C3.51547 21.4299 3.48422 19.7111 3.49984 19.133L3.51547 18.5314L5.14047 17.9611C6.64828 17.4299 6.78109 17.3674 7.10922 17.0393C7.39828 16.7424 7.50765 16.5393 7.7264 15.8986C7.87484 15.4689 8.17172 14.7502 8.39047 14.2971C8.73422 13.5705 8.78109 13.4143 8.78109 12.9689C8.78109 12.4924 8.74203 12.3752 8.06234 10.9455L7.34359 9.43769L7.8514 8.86738C8.12484 8.55488 8.6014 8.08613 8.89828 7.82051L9.43734 7.34394L10.953 8.06269C12.3748 8.74238 12.492 8.78144 12.9686 8.78144C13.4139 8.78926 13.5702 8.74238 14.2577 8.40644C14.6873 8.20332 15.4295 7.89863 15.8983 7.72676C17.1561 7.28144 17.2342 7.18769 17.9608 5.14082L18.5311 3.52363L19.1717 3.49238C19.5155 3.47676 19.9608 3.47676 20.1483 3.49238C20.3358 3.50019 20.7108 3.51582 20.9764 3.51582Z" fill="#4C4C4C"/>
<path d="M18.3668 11.8047C15.1481 12.4844 12.7184 15.0078 12.1481 18.25C11.5465 21.6875 13.3121 25.1719 16.4371 26.7188C16.8746 26.9375 17.5777 27.2031 18.0074 27.3203C18.6949 27.5 18.9371 27.5234 19.9996 27.5234C21.0621 27.5234 21.3043 27.5 21.9918 27.3203C26.8981 26.0156 29.3824 20.5781 27.1246 16.0547C25.5074 12.7969 21.9215 11.0625 18.3668 11.8047ZM21.0543 15.2734C22.1871 15.5625 23.3277 16.4297 23.8902 17.4297C25.1246 19.6172 24.2184 22.4844 21.9371 23.5859C18.5231 25.2344 14.7652 22.1563 15.7027 18.4844C15.9137 17.6641 16.2418 17.1016 16.9137 16.4375C17.7809 15.5781 18.7496 15.1719 19.9606 15.1641C20.3121 15.1563 20.8043 15.2109 21.0543 15.2734Z" fill="#4C4C4C"/>
</symbol><symbol viewBox="0 0 69.03367 54.09793" id="icon_transmission">
<path d="M7.23759 1.08316C4.81083 1.61012 2.43954 3.46832 1.30243 5.72867C-0.4587 9.25094 0.17919 13.2308 2.95263 16.0043C4.47802 17.5297 6.15595 18.3201 8.51337 18.6113C11.9524 19.0273 14.92 20.8439 16.5702 23.5757C17.1526 24.5326 17.9569 26.8068 17.9569 27.5002C17.9569 28.1935 17.1942 30.3429 16.5841 31.383C15.9184 32.5339 14.2128 34.2396 13.0618 34.9052C11.8692 35.5986 10.011 36.2088 8.51337 36.389C6.15595 36.6802 4.47802 37.4707 2.95263 38.9961C-0.528036 42.4767 -0.569638 47.9959 2.86942 51.4211C4.57509 53.1129 6.39169 53.9449 8.69364 54.0836C11.2036 54.2222 13.5472 53.3347 15.3499 51.5597C16.9446 49.9927 17.7351 48.3148 18.0401 45.9158C18.4561 42.4767 20.2727 39.5091 23.0046 37.8589C24.1001 37.1933 26.097 36.5416 27.5946 36.3613C28.2602 36.2781 29.1616 36.0978 29.5915 35.9591C32.2401 35.141 34.5698 32.7974 35.4296 30.0656C35.8595 28.6927 35.8595 26.3076 35.4296 24.9347C34.9997 23.5757 34.2231 22.3138 33.1692 21.2599C31.63 19.7345 29.8966 18.9164 27.5946 18.639C26.097 18.4588 24.1001 17.807 23.0046 17.1414C21.2712 16.1013 19.5794 14.1461 18.886 12.3849C18.4839 11.4004 18.054 9.79176 18.054 9.2648C18.0401 8.36344 17.6102 6.85192 17.0556 5.72867C15.2528 2.16481 11.2036 0.237267 7.23759 1.08316ZM10.7737 3.30191C13.353 3.98141 15.3499 6.17242 15.7104 8.73785C16.4038 13.6468 18.4561 17.0582 21.9229 19.055C22.3806 19.3185 22.7688 19.5543 22.7688 19.5959C22.7688 19.6375 22.4915 19.8455 22.1448 20.0535C21.188 20.6636 20.2589 21.565 19.6487 22.4941C19.3436 22.9517 19.0663 23.3261 19.0247 23.3261C18.9831 23.3261 18.7474 22.9517 18.4839 22.4941C16.487 19.0273 13.0757 16.975 8.16669 16.2816C5.60126 15.9211 3.41025 13.9242 2.73075 11.3449C1.49657 6.60231 6.03114 2.06774 10.7737 3.30191ZM28.5237 21.0519C32.0737 21.981 34.2786 25.6142 33.3772 29.0949C32.6977 31.6742 30.5067 33.6711 27.9413 34.0316C25.9999 34.3089 24.0862 34.8359 22.8104 35.4738C18.7612 37.4707 16.4593 40.9652 15.7104 46.2625C15.3499 48.8279 13.353 51.0189 10.7737 51.6984C6.03114 52.9326 1.49657 48.398 2.73075 43.6554C3.41025 41.0761 5.60126 39.0793 8.16669 38.7187C13.464 37.9699 16.9585 35.6679 18.9554 31.6187C19.5933 30.3429 20.1202 28.4293 20.3976 26.4879C20.9245 22.7021 24.8212 20.0951 28.5237 21.0519Z" fill="#4C4C4C"/>
<path d="M8.13918 5.4375C6.8634 5.77031 5.74015 6.68555 5.15773 7.87813C4.89426 8.44668 4.82492 8.79336 4.82492 9.7502C4.81105 10.8318 4.85265 10.9982 5.28254 11.8025C5.80949 12.7732 6.25324 13.1893 7.29328 13.7439C7.88957 14.049 8.18078 14.1045 9.17922 14.1045C10.1777 14.1045 10.4689 14.049 11.0652 13.7439C12.1052 13.1893 12.5489 12.7732 13.0759 11.8025C13.5058 10.9982 13.5474 10.8318 13.5335 9.7502C13.5335 8.75176 13.478 8.46055 13.173 7.86426C12.6321 6.82422 12.2023 6.38047 11.2732 5.88125C10.3718 5.40977 8.99894 5.20176 8.13918 5.4375ZM10.0528 7.72559C11.4812 8.32188 11.8278 10.1801 10.7185 11.2895C9.16535 12.8564 6.61379 11.4559 7.01594 9.26484C7.26554 7.96133 8.79094 7.18477 10.0528 7.72559Z" fill="#4C4C4C"/>
<path d="M25.8892 23.1875C24.6134 23.5203 23.4902 24.4355 22.9077 25.6281C22.6443 26.1967 22.5749 26.5434 22.5749 27.5002C22.5611 28.5818 22.6027 28.7482 23.0325 29.5525C23.5595 30.5232 24.0032 30.9393 25.0433 31.4939C25.6396 31.799 25.9308 31.8545 26.9292 31.8545C27.9277 31.8545 28.2189 31.799 28.8152 31.4939C29.8552 30.9393 30.2989 30.5232 30.8259 29.5525C31.2558 28.7482 31.2974 28.5818 31.2835 27.5002C31.2835 26.5018 31.228 26.2105 30.923 25.6143C30.3821 24.5742 29.9523 24.1305 29.0232 23.6313C28.1218 23.1598 26.7489 22.9518 25.8892 23.1875ZM27.8028 25.4756C29.2312 26.0719 29.5778 27.9301 28.4685 29.0395C27.5671 29.9408 26.2913 29.9408 25.39 29.0395C23.6704 27.3338 25.5702 24.5326 27.8028 25.4756Z" fill="#4C4C4C"/>
<path d="M8.13918 40.9375C6.8634 41.2703 5.74015 42.1855 5.15773 43.3781C4.89426 43.9467 4.82492 44.2934 4.82492 45.2502C4.81105 46.3318 4.85265 46.4982 5.28254 47.3025C5.80949 48.2732 6.25324 48.6893 7.29328 49.2439C7.88957 49.549 8.18078 49.6045 9.17922 49.6045C10.1777 49.6045 10.4689 49.549 11.0652 49.2439C12.1052 48.6893 12.5489 48.2732 13.0759 47.3025C13.5058 46.4982 13.5474 46.3318 13.5335 45.2502C13.5335 44.2518 13.478 43.9605 13.173 43.3643C12.6321 42.3242 12.2023 41.8805 11.2732 41.3813C10.3718 40.9098 8.99894 40.7018 8.13918 40.9375ZM10.0528 43.2256C11.4812 43.8219 11.8278 45.6801 10.7185 46.7895C9.81711 47.6908 8.54133 47.6908 7.63996 46.7895C5.92043 45.0838 7.82023 42.2826 10.0528 43.2256Z" fill="#4C4C4C"/>
<path d="M40.5188 1.08316C38.0921 1.61012 35.7208 3.46832 34.5837 5.72867C32.8225 9.25094 33.4604 13.2308 36.2339 16.0043C37.7593 17.5297 39.4372 18.3201 41.7946 18.6113C45.2337 19.0273 48.2013 20.8439 49.8515 23.5757C50.4339 24.5326 51.2382 26.8068 51.2382 27.5002C51.2382 28.1935 50.4755 30.3429 49.8653 31.383C49.1997 32.5339 47.494 34.2396 46.3431 34.9052C45.1505 35.5986 43.2923 36.2088 41.7946 36.389C39.4372 36.6802 37.7593 37.4707 36.2339 38.9961C32.7532 42.4767 32.7116 47.9959 36.1507 51.4211C37.8563 53.1129 39.6729 53.9449 41.9749 54.0836C44.4849 54.2222 46.8284 53.3347 48.6311 51.5597C50.2259 49.9927 51.0163 48.3148 51.3214 45.9158C51.7374 42.4767 53.554 39.5091 56.2858 37.8589C57.3813 37.1933 59.3782 36.5416 60.8759 36.3613C61.5415 36.2781 62.4429 36.0978 62.8727 35.9591C65.5214 35.141 67.8511 32.7974 68.7108 30.0656C69.1407 28.6927 69.1407 26.3076 68.7108 24.9347C68.2809 23.5757 67.5044 22.3138 66.4505 21.2599C64.9112 19.7345 63.1778 18.9164 60.8759 18.639C59.3782 18.4588 57.3813 17.807 56.2858 17.1414C54.5524 16.1013 52.8606 14.1461 52.1673 12.3849C51.7651 11.4004 51.3352 9.79176 51.3352 9.2648C51.3214 8.36344 50.8915 6.85192 50.3368 5.72867C48.5341 2.16481 44.4849 0.237267 40.5188 1.08316ZM44.055 3.30191C46.6343 3.98141 48.6311 6.17242 48.9917 8.73785C49.6851 13.6468 51.7374 17.0582 55.2042 19.055C55.6618 19.3185 56.0501 19.5543 56.0501 19.5959C56.0501 19.6375 55.7727 19.8455 55.4261 20.0535C54.4692 20.6636 53.5401 21.565 52.93 22.4941C52.6249 22.9517 52.3475 23.3261 52.3059 23.3261C52.2643 23.3261 52.0286 22.9517 51.7651 22.4941C49.7683 19.0273 46.3569 16.975 41.4479 16.2816C38.8825 15.9211 36.6915 13.9242 36.012 11.3449C34.7778 6.60231 39.3124 2.06774 44.055 3.30191ZM61.805 21.0519C65.355 21.981 67.5599 25.6142 66.6585 29.0949C65.979 31.6742 63.788 33.6711 61.2225 34.0316C59.2811 34.3089 57.3675 34.8359 56.0917 35.4738C52.0425 37.4707 49.7405 40.9652 48.9917 46.2625C48.6311 48.8279 46.6343 51.0189 44.055 51.6984C39.3124 52.9326 34.7778 48.398 36.012 43.6554C36.6915 41.0761 38.8825 39.0793 41.4479 38.7187C46.7452 37.9699 50.2397 35.6679 52.2366 31.6187C52.8745 30.3429 53.4015 28.4293 53.6788 26.4879C54.2058 22.7021 58.1024 20.0951 61.805 21.0519Z" fill="#4C4C4C"/>
<path d="M41.4204 5.4375C40.1446 5.77031 39.0214 6.68555 38.439 7.87813C38.1755 8.44668 38.1062 8.79336 38.1062 9.7502C38.0923 10.8318 38.1339 10.9982 38.5638 11.8025C39.0907 12.7732 39.5345 13.1893 40.5745 13.7439C41.1708 14.049 41.462 14.1045 42.4605 14.1045C43.4589 14.1045 43.7501 14.049 44.3464 13.7439C45.3864 13.1893 45.8302 12.7732 46.3571 11.8025C46.787 10.9982 46.8286 10.8318 46.8148 9.7502C46.8148 8.75176 46.7593 8.46055 46.4542 7.86426C45.9134 6.82422 45.4835 6.38047 44.5544 5.88125C43.653 5.40977 42.2802 5.20176 41.4204 5.4375ZM43.3341 7.72559C44.7624 8.32188 45.1091 10.1801 43.9997 11.2895C42.4466 12.8564 39.895 11.4559 40.2972 9.26484C40.5468 7.96133 42.0722 7.18477 43.3341 7.72559Z" fill="#4C4C4C"/>
<path d="M59.1704 23.1875C57.8946 23.5203 56.7714 24.4355 56.189 25.6281C55.9255 26.1967 55.8562 26.5434 55.8562 27.5002C55.8423 28.5818 55.8839 28.7482 56.3138 29.5525C56.8407 30.5232 57.2845 30.9393 58.3245 31.4939C58.9208 31.799 59.212 31.8545 60.2105 31.8545C61.2089 31.8545 61.5001 31.799 62.0964 31.4939C63.1364 30.9393 63.5802 30.5232 64.1071 29.5525C64.537 28.7482 64.5786 28.5818 64.5648 27.5002C64.5648 26.5018 64.5093 26.2105 64.2042 25.6143C63.6634 24.5742 63.2335 24.1305 62.3044 23.6313C61.403 23.1598 60.0302 22.9518 59.1704 23.1875ZM61.0841 25.4756C62.5124 26.0719 62.8591 27.9301 61.7497 29.0395C60.8484 29.9408 59.5726 29.9408 58.6712 29.0395C56.9517 27.3338 58.8515 24.5326 61.0841 25.4756Z" fill="#4C4C4C"/>
<path d="M41.4204 40.9375C40.1446 41.2703 39.0214 42.1855 38.439 43.3781C38.1755 43.9467 38.1062 44.2934 38.1062 45.2502C38.0923 46.3318 38.1339 46.4982 38.5638 47.3025C39.0907 48.2732 39.5345 48.6893 40.5745 49.2439C41.1708 49.549 41.462 49.6045 42.4605 49.6045C43.4589 49.6045 43.7501 49.549 44.3464 49.2439C45.3864 48.6893 45.8302 48.2732 46.3571 47.3025C46.787 46.4982 46.8286 46.3318 46.8148 45.2502C46.8148 44.2518 46.7593 43.9605 46.4542 43.3643C45.9134 42.3242 45.4835 41.8805 44.5544 41.3813C43.653 40.9098 42.2802 40.7018 41.4204 40.9375ZM43.3341 43.2256C44.7624 43.8219 45.1091 45.6801 43.9997 46.7895C43.0984 47.6908 41.8226 47.6908 40.9212 46.7895C39.2017 45.0838 41.1015 42.2826 43.3341 43.2256Z" fill="#4C4C4C"/>
</symbol><symbol viewBox="0 0 39.94533 39.996464" id="icon_verify">
<path d="M18.6953 0.117313C17.1641 0.390751 16.0625 0.976688 14.625 2.26575C13.6094 3.18763 12.4141 3.66419 11.125 3.672C10.0938 3.672 8.70313 4.00013 7.8125 4.45325C6.46094 5.13294 5.125 6.46888 4.45313 7.81263C4 8.70325 3.67188 10.0939 3.67188 11.1251C3.66406 12.297 3.25 13.4533 2.50781 14.3361C1.36719 15.6876 1.125 16.0236 0.773438 16.7579C0.195313 17.9454 0.046875 18.6329 0.046875 20.0001C0.046875 21.3361 0.195313 22.0314 0.726563 23.1642C1.09375 23.9454 1.48438 24.5079 2.20313 25.297C3.21875 26.4064 3.57031 27.2736 3.67188 28.8986C3.76563 30.4142 4.02344 31.3986 4.57813 32.4142C5.28125 33.6876 6.52344 34.8907 7.8125 35.547C8.69531 36.0001 10.0938 36.3283 11.125 36.3283C12.4141 36.3361 13.6328 36.8204 14.6328 37.7345C15.4375 38.4689 15.9609 38.8439 16.6016 39.172C18.0781 39.922 19.6719 40.1642 21.2734 39.8829C22.8047 39.6173 23.9688 39.0158 25.2813 37.8126C26.4063 36.7814 27.2578 36.4298 28.9297 36.3283C31.2266 36.1798 32.7969 35.5001 34.1797 34.047C35.5938 32.5782 36.1797 31.1642 36.3281 28.9376C36.4297 27.2501 36.7734 26.422 37.8516 25.2267C38.8516 24.1251 39.4141 23.1329 39.75 21.8829C39.9219 21.2423 39.9453 20.9689 39.9453 20.0001C39.9453 19.0314 39.9219 18.7579 39.75 18.1173C39.3984 16.8204 38.8359 15.8439 37.7344 14.6329C36.8203 13.6329 36.3359 12.4142 36.3281 11.1251C36.3281 9.9845 35.9688 8.57825 35.4219 7.59388C34.6172 6.11731 33.0859 4.75794 31.6406 4.21106C30.8203 3.89856 30.0313 3.74231 28.9297 3.672C27.2578 3.57044 26.4063 3.21888 25.2813 2.18763C24.3125 1.297 23.5156 0.797001 22.5156 0.437626C21.3438 0.0235634 19.8906 -0.101437 18.6953 0.117313ZM21.0547 2.46106C21.8672 2.63294 22.7578 3.09388 23.4609 3.71888C24.4297 4.57044 24.9063 4.90638 25.6641 5.27356C26.5859 5.72669 27.4531 5.92981 28.7422 6.01575C29.3281 6.05481 29.9844 6.14075 30.1953 6.19544C31.8594 6.64856 33.2031 7.93763 33.7188 9.56263C33.8594 10.0236 33.9375 10.4767 33.9844 11.2579C34.0703 12.5861 34.2734 13.422 34.7656 14.4142C35.1641 15.2189 35.3516 15.4845 36.2813 16.5392C38.1094 18.6251 38.1094 21.3595 36.2734 23.4689C35.3438 24.5314 35.1641 24.7892 34.7656 25.5861C34.2734 26.5782 34.0703 27.4142 33.9844 28.7423C33.8516 30.8282 33.1406 32.1564 31.6484 33.1407C30.8281 33.6798 30.0547 33.8986 28.7422 33.9845C27.4141 34.0704 26.5781 34.2736 25.5859 34.7657C24.7813 35.1642 24.5156 35.3517 23.4609 36.2814C21.3828 38.1095 18.6172 38.1095 16.5391 36.2814C15.4844 35.3517 15.2188 35.1642 14.4141 34.7657C13.4219 34.2736 12.5859 34.0704 11.2578 33.9845C10.4766 33.9376 10.0234 33.8595 9.5625 33.7189C7.9375 33.2032 6.64844 31.8595 6.19531 30.1954C6.14063 29.9845 6.05469 29.3282 6.01563 28.7423C5.92969 27.4142 5.71875 26.5782 5.23438 25.5861C4.83594 24.7814 4.64844 24.5158 3.71875 23.4611C1.89063 21.3829 1.89063 18.6251 3.71875 16.5314C4.60156 15.5236 4.91406 15.0783 5.27344 14.3361C5.72656 13.4064 5.92969 12.547 6.01563 11.2579C6.11719 9.75013 6.32031 9.09388 6.98438 8.172C7.96875 6.78919 9.25 6.14075 11.2578 6.01575C13.4766 5.87513 14.6484 5.36731 16.5313 3.71888C17.8516 2.56263 19.4453 2.12513 21.0547 2.46106Z" fill="#4C4C4C"/>
<path d="M18.8672 8.25781C15.1797 8.69531 12.1328 10.5391 10.1641 13.5234C9.29688 14.8281 8.67969 16.3516 8.39063 17.9297C8.1875 19.0078 8.1875 20.9922 8.39063 22.0703C9.29688 26.9531 13.0469 30.7031 17.9297 31.6094C19.0078 31.8125 20.9922 31.8125 22.0703 31.6094C26.9531 30.7031 30.7031 26.9531 31.6094 22.0703C31.8125 20.9922 31.8125 19.0078 31.6094 17.9297C30.6641 12.8516 26.6484 9.00781 21.5625 8.32031C20.8125 8.21875 19.4531 8.1875 18.8672 8.25781ZM21.4063 10.6562C24.4141 11.1172 27.0547 13.0312 28.4141 15.7422C29.1641 17.2266 29.4063 18.2969 29.4063 20C29.4063 21.3125 29.2891 22.0703 28.9297 23.0859C27.7813 26.2812 25.1953 28.5469 21.8594 29.2656C20.9531 29.4687 19.0391 29.4609 18.125 29.2656C15.8438 28.7734 13.7969 27.4609 12.3828 25.5859C11.5781 24.5156 10.875 22.8125 10.6641 21.4297C9.96875 16.8437 12.6563 12.5 17.1172 11.0078C18.4297 10.5703 19.9766 10.4453 21.4063 10.6562Z" fill="#4C4C4C"/>
<path d="M21.4062 18.7891L18.3203 21.875L16.875 20.4297L15.4297 18.9844L14.6094 19.8047L13.7891 20.625L16.0781 22.9141L18.3594 25.1953L22.2656 21.2891C24.4141 19.1406 26.1719 17.3438 26.1719 17.3047C26.1719 17.2031 24.6719 15.7031 24.5703 15.7031C24.5234 15.7031 23.1016 17.0938 21.4062 18.7891Z" fill="#4C4C4C"/>
</symbol></svg>