<svg xmlns="http://www.w3.org/2000/svg"><symbol viewBox="0 0 235 32" id="brand_shimano">
<path fill-rule="evenodd" clip-rule="evenodd" d="M44.0627 0H35.5439V32H44.0627V24.8224H56.9877V32H65.8002V0H56.9877V18.8411H44.0627V0Z" fill="black"/>
<path fill-rule="evenodd" clip-rule="evenodd" d="M72.8501 0V32H81.9563V0H72.8501Z" fill="black"/>
<path fill-rule="evenodd" clip-rule="evenodd" d="M116.913 5.08411C118.675 5.38318 121.025 5.68224 121.025 9.57009V32H129.544V10.1682C129.544 5.38318 129.838 0.299065 122.494 0H89.0063V32H97.5251V5.38318H105.163V32H113.388V5.08411H116.913Z" fill="black"/>
<path fill-rule="evenodd" clip-rule="evenodd" d="M191.819 10.7664V32H200.631V8.6729C200.631 3.28972 197.4 0 192.112 0H170.962V32H179.775V5.38318H188C190.937 5.38318 191.819 8.37383 191.819 10.7664Z" fill="black"/>
<path fill-rule="evenodd" clip-rule="evenodd" d="M6.75625 19.1402C6.75625 19.1402 7.05 19.1402 7.34375 19.1402H18.8C20.8562 19.1402 22.0312 20.9346 22.325 22.4299C22.6187 24.5234 21.4437 26.6168 18.8 26.6168H0.88125V32H19.3875C21.15 32 22.6187 32 23.5 32C24.0875 32 25.2625 31.7009 25.85 31.4019C28.7875 29.9065 29.9625 26.9159 30.2562 23.9252C30.2562 23.028 30.2562 22.1308 30.2562 21.2336C29.9625 14.9533 28.2 12.2617 21.4437 12.2617H11.1625C8.8125 12.2617 8.225 10.1682 8.225 8.37383C8.225 5.08411 10.8687 5.38318 13.8062 5.38318H29.375V0H6.75625C6.16875 0 4.99375 0.299065 4.40625 0.299065C1.46875 1.49533 0 5.08411 0 8.97196C0 13.757 1.46875 19.1402 6.75625 19.1402Z" fill="black"/>
<path fill-rule="evenodd" clip-rule="evenodd" d="M235 24.5234V7.47664C235 3.28972 231.769 0 227.656 0H212.969C208.856 0 205.625 3.28972 205.625 7.47664V24.5234C205.625 28.7103 208.856 32 212.969 32H227.656C231.769 32 235 28.7103 235 24.5234ZM217.669 5.38318H222.662C224.719 5.38318 226.187 6.8785 226.187 8.97196V23.3271C226.187 25.1215 224.719 26.9159 222.662 26.9159H217.669C215.906 26.9159 214.144 25.1215 214.144 23.3271V8.97196C214.144 6.8785 215.906 5.38318 217.669 5.38318Z" fill="black"/>
<path fill-rule="evenodd" clip-rule="evenodd" d="M134.831 8.6729V32H143.35V25.1215H157.156V32H165.969V8.97196C165.969 2.99065 162.737 0 158.037 0H141.881C137.181 0 134.831 4.18692 134.831 8.6729ZM157.156 9.27103V19.1402H143.644V9.27103C143.644 6.57944 145.7 5.38318 146.581 5.38318H153.631C155.394 5.38318 157.156 6.8785 157.156 9.27103Z" fill="black"/>
</symbol><symbol viewBox="0 0 244.99908 31.14" id="brand_sram">
<path d="M166.545 15.4214C164.293 23.9127 162.439 30.9171 162.415 30.9915C162.381 31.1319 162.828 31.1401 170.948 31.1401H179.507L179.639 30.6611C179.714 30.405 181.121 25.1021 182.76 18.8741C184.407 12.6543 185.764 7.54964 185.773 7.54138C185.789 7.52486 188.107 7.52486 190.929 7.53312L196.061 7.5579L192.982 19.2871L189.903 31.0162L198.18 31.041C202.733 31.0493 206.466 31.0493 206.482 31.041C206.49 31.0245 207.898 25.7381 209.594 19.2871L212.69 7.5579L217.797 7.53312C220.603 7.52486 222.904 7.54138 222.904 7.58268C222.904 7.6405 216.911 30.5867 216.812 30.9171C216.771 31.0493 217.201 31.0575 225.321 31.041L233.871 31.0162L234.012 30.4793C234.169 29.9094 235.212 25.5068 236.52 19.8653C236.959 17.9985 237.679 14.9754 238.134 13.1334C239.044 9.41639 239.169 8.68126 239.102 7.4753C238.978 5.46812 238.275 3.81613 236.95 2.42845C235.783 1.19772 234.169 0.346938 232.506 0.0826189C232.141 0.033059 221.836 1.91107e-05 201.301 1.91107e-05H170.626L166.545 15.4214Z" fill="black"/>
<path d="M68.0135 0.247825C66.6726 0.404764 65.2738 0.784723 64.1729 1.28032C62.1616 2.19718 60.324 4.00611 59.2646 6.11241C58.8755 6.88059 58.6521 7.51661 58.2382 8.98688C57.5098 11.564 52.3945 30.818 52.3945 30.9749C52.3945 31.0328 55.2005 31.0493 60.9366 31.041L69.4786 31.0162L71.1009 24.9452C71.9948 21.6081 72.7481 18.8245 72.7646 18.7584C72.7894 18.6924 74.0641 20.1461 75.9016 22.3515C81.5384 29.1082 82.4323 30.0994 83.2518 30.5124C84.2616 31.0245 83.8974 31.008 93.2257 31.0328C99.2267 31.0575 101.726 31.041 101.685 30.9749C101.652 30.9254 99.5246 28.4061 96.9504 25.3747L92.2739 19.8653L97.5216 19.8405L102.761 19.824L103.605 16.4952C104.077 14.6697 104.681 12.3074 104.954 11.2501C105.534 8.99514 105.65 8.16088 105.534 7.10361C105.17 3.93177 102.869 1.32162 99.5991 0.388244L98.9535 0.206525L83.7649 0.198265C75.4133 0.190005 68.3198 0.214785 68.0135 0.247825ZM88.963 7.03753C88.9382 7.09535 88.4995 8.7556 87.978 10.7132L87.0344 14.2898H80.5037H73.9813L74.0145 14.0998C74.0393 14.0007 74.4945 12.3487 75.0325 10.4241L76.0093 6.93841H82.5068C87.6635 6.93841 88.9878 6.96319 88.963 7.03753Z" fill="black"/>
<path d="M121.468 0.305507C118.066 0.743285 115.583 2.58526 113.861 5.93055C112.876 7.85513 112.793 8.13596 108.804 23.2104C107.728 27.2743 106.817 30.7105 106.776 30.8344L106.701 31.0657L113.215 31.0326C120.069 30.9996 120.234 30.9913 121.559 30.6031C122.759 30.2562 123.702 29.5376 124.149 28.629C124.712 27.4891 125.482 25.1267 126.268 22.1531L126.666 20.6498H133.445C138.808 20.6498 140.215 20.6746 140.215 20.7489C140.215 20.8068 139.586 23.1609 138.825 25.9775L137.434 31.0987L146.001 31.1235C150.711 31.1317 154.576 31.1317 154.585 31.1152C154.618 31.0822 162.812 0.396366 162.812 0.313767C162.812 0.247687 121.964 0.239427 121.468 0.305507ZM143.361 7.02087C143.361 7.11173 141.813 13.092 141.565 13.9345L141.449 14.3722H134.951C128.801 14.3722 128.454 14.364 128.495 14.2236C128.52 14.1492 128.95 12.522 129.455 10.614C129.96 8.7059 130.39 7.09521 130.407 7.03739C130.457 6.90523 143.361 6.88871 143.361 7.02087Z" fill="black"/>
<path d="M15.6024 0.388074C11.348 0.924973 8.52547 2.86607 6.87831 6.3683C6.28236 7.65685 6.05888 8.37547 4.88352 12.8193C4.29584 15.0578 3.74127 17.1393 3.65022 17.4449L3.48468 18.0066L17.7048 18.0231L31.925 18.0479L31.1635 20.9389C30.7413 22.5248 30.3523 23.9868 30.3027 24.1768L30.2033 24.532H16.008H1.82097L1.7382 24.7137C1.66371 24.8789 0 30.9252 0 31.0161C0 31.0409 8.34337 31.0574 18.5325 31.0574C34.7309 31.0574 37.1975 31.0409 38.0501 30.9335C41.0216 30.5453 43.0578 29.5954 44.7711 27.7864C46.3521 26.1262 47.1798 24.3585 48.2144 20.4846C48.471 19.5099 49.0504 17.3623 49.5057 15.7269C49.9526 14.0831 50.3251 12.6954 50.3251 12.6459C50.3251 12.5798 46.5259 12.555 36.5436 12.555C25.5764 12.555 22.7622 12.5302 22.7622 12.4476C22.7622 12.3981 23.0933 11.1178 23.4906 9.62273L24.219 6.89694L38.0584 6.87216L51.8978 6.85564L51.9474 6.62436C51.9805 6.50046 52.3861 5.03844 52.8496 3.36167L53.6939 0.330254L34.7723 0.338514C24.3679 0.346774 15.7431 0.371554 15.6024 0.388074Z" fill="black"/>
<path d="M240.708 24.1688C240.037 24.3505 239.491 24.6809 239.003 25.2095C238.373 25.8868 238.183 26.4155 238.175 27.4645C238.175 28.2161 238.2 28.34 238.431 28.8274C238.986 30.0003 239.93 30.6694 241.254 30.8428C241.767 30.9089 242.678 30.7354 243.182 30.4794C243.961 30.0829 244.631 29.2486 244.879 28.3813C245.086 27.6792 245.02 26.7046 244.73 26.0768C244.043 24.5818 242.289 23.7475 240.708 24.1688ZM242.537 24.8378C242.769 24.9039 243.108 25.1187 243.348 25.3334C244.838 26.6715 244.523 29.0834 242.752 29.992C242.206 30.2729 241.221 30.3059 240.575 30.0581C239.913 29.8103 239.3 29.1991 239.052 28.5383C238.804 27.8775 238.829 26.7459 239.118 26.2007C239.789 24.9122 241.105 24.3835 242.537 24.8378Z" fill="black"/>
<path d="M240.286 27.4562V29.4055H240.575H240.865V28.5795V27.7535H241.221H241.569L242.065 28.5795L242.562 29.4055H242.91H243.265L242.959 28.9264C242.794 28.6704 242.554 28.2987 242.421 28.1087C242.297 27.9187 242.189 27.7453 242.189 27.7205C242.189 27.704 242.297 27.6627 242.438 27.6296C242.967 27.514 243.307 26.7788 243.092 26.2089C242.876 25.6555 242.653 25.5646 241.395 25.5398L240.286 25.5068V27.4562ZM242.305 26.1924C242.57 26.3989 242.595 26.7706 242.355 27.0101C242.214 27.1505 242.082 27.1753 241.527 27.1753H240.865V26.5971V26.0189H241.478C241.966 26.0189 242.123 26.052 242.305 26.1924Z" fill="black"/>
</symbol><symbol viewBox="0 0 122.625946 36" id="brand_tacx">
<path d="M1.47743 0.262278C1.41782 0.417244 1.2271 1.31128 1.04829 2.26493C0.535705 5.04241 0.154248 6.94969 0.0469635 7.28347C-0.0245597 7.49804 -0.0126392 7.65301 0.0708045 7.73645C0.166169 7.83181 1.54895 7.86757 4.66021 7.86757H9.13041L9.04696 8.49936C8.98736 9.09539 8.66551 10.8596 8.39133 12.159C8.33173 12.457 8.21253 13.0411 8.141 13.4702C8.06948 13.8994 7.96219 14.4596 7.90259 14.7219C7.84299 14.9841 7.68802 15.7828 7.5569 16.51C7.41385 17.2252 7.12776 18.7868 6.90127 19.9669C6.54365 21.8384 6.01915 24.5682 5.62577 26.702C5.55425 27.0596 5.44696 27.5484 5.38736 27.7868C5.32776 28.0252 5.28008 28.347 5.28008 28.4901C5.28008 28.6451 5.23239 28.9311 5.17279 29.1338C5.11319 29.3364 4.9463 30.147 4.80325 30.9338C4.67213 31.7206 4.50524 32.5788 4.44564 32.8411C4.12378 34.2596 3.9569 35.4398 4.05226 35.5351C4.11186 35.5947 6.43637 35.6305 9.57147 35.6186C14.2324 35.5828 14.9834 35.559 15.0549 35.404C15.1145 35.3086 15.2099 34.8437 15.2933 34.3908C15.4125 33.6517 15.5437 32.9484 16.0086 30.5762C16.4258 28.3947 17.2483 24.0437 17.4509 22.947C17.5821 22.2199 17.737 21.4212 17.7966 21.159C17.8562 20.8967 17.9635 20.3364 18.035 19.9073C18.1066 19.4782 18.2139 18.9179 18.2735 18.6557C18.3331 18.3934 18.488 17.559 18.6311 16.808C18.7622 16.057 18.9291 15.1987 18.9887 14.9007C19.0483 14.6027 19.3225 13.1841 19.5966 11.7417C19.8589 10.2994 20.145 8.84506 20.2284 8.5232L20.3595 7.92718L24.9489 7.86757L29.5384 7.80797L29.8006 6.43711C29.9556 5.68612 30.1344 4.76824 30.2059 4.41062C30.337 3.75499 30.4205 3.29009 30.6708 1.96691C30.7542 1.57354 30.8615 1.02519 30.9211 0.739099C30.9807 0.453006 31.0046 0.178834 30.9688 0.107311C30.9211 0.047708 25.3542 2.59182e-05 16.235 2.59182e-05H1.58471L1.47743 0.262278Z" fill="black"/>
<path d="M74.0619 8.4159C73.895 8.43974 73.3943 8.52318 72.9413 8.59471C70.0327 9.07153 67.0526 10.6689 64.7638 12.9815C62.4155 15.3536 61.0208 17.9404 60.1148 21.6358C59.7095 23.245 59.7334 25.7126 60.1625 27.3815C61.14 31.2556 63.0831 33.747 66.5042 35.5232L67.4102 36H72.8817C75.9691 36 78.4486 35.9523 78.5678 35.8927C78.6751 35.8331 79.0685 35.6901 79.4261 35.5947C80.2844 35.3444 80.3321 35.2967 80.4155 34.8079C80.5824 33.902 80.7493 32.9364 80.8446 32.3642C80.9042 32.0305 81.095 30.8742 81.2857 29.7775C81.4645 28.6808 81.5837 27.751 81.548 27.7033C81.5003 27.6676 80.9162 27.7748 80.2367 27.9536C78.9135 28.2874 76.744 28.6093 75.8023 28.6093C73.6685 28.6093 71.6062 27.751 70.6645 26.4636C70.0208 25.5934 69.7705 24.8781 69.5917 23.3881C69.2936 20.9086 71.5824 17.8212 74.4195 16.8795C76.7201 16.1166 79.7956 16.4146 82.5135 17.6543C83.0976 17.9285 83.3599 17.8808 83.3599 17.5232C83.3599 17.3921 83.4076 17.0583 83.4791 16.7841C83.8009 15.3417 84.54 10.8358 84.4685 10.6689C84.397 10.4543 83.0142 9.79868 81.5718 9.2861C79.891 8.67815 78.4844 8.43974 76.3864 8.40398C75.2778 8.38014 74.2287 8.38014 74.0619 8.4159Z" fill="black"/>
<path d="M38.9435 8.64239C35.6058 9.16689 32.6852 10.7166 30.2177 13.2795C28.966 14.5907 28.1197 15.747 27.3687 17.1656C25.0919 21.5046 24.7462 26.1894 26.427 30.0636C27.0349 31.4821 27.5356 32.2331 28.525 33.2583C29.2402 33.9974 30.9448 35.2848 31.2071 35.2848C31.2429 35.2848 31.6005 35.4517 32.0058 35.6424L32.7448 36H36.5952C38.717 36 40.5409 35.9523 40.6601 35.9046C42.6508 34.9391 43.2468 34.5934 43.9501 34.0093C45.2972 32.8649 45.3329 32.8649 45.1184 34.0093C45.0468 34.4146 44.9634 34.9391 44.9515 35.1656L44.9157 35.5828H49.5647H54.2018L54.2852 35.1656C54.321 34.9391 54.476 33.9735 54.619 33.0199C54.8574 31.3868 54.9409 30.8861 55.227 29.2291C55.2866 28.8596 55.4535 27.8464 55.5846 27C55.7157 26.1417 55.8826 25.1285 55.9422 24.7351C56.0018 24.3417 56.1687 23.3166 56.2998 22.4702C56.4309 21.6119 56.5859 20.6225 56.6574 20.2649C56.717 19.9073 56.9435 18.5364 57.1462 17.2252C57.4799 15.0795 57.7184 13.5656 58.0998 11.2053C58.1594 10.7762 58.2548 10.204 58.2905 9.91788L58.3621 9.41722L53.6654 9.44106L48.9687 9.47682L48.9329 9.83444C48.8852 10.4066 48.6468 11.5629 48.5634 11.6225C48.5157 11.6464 48.1819 11.3603 47.8124 10.9907C46.9541 10.1325 46.0839 9.60795 44.7965 9.15497C42.8892 8.49934 40.9462 8.33245 38.9435 8.64239ZM44.0694 16.8676C46.3223 17.5589 47.5621 19.6808 47.2402 22.2795C47.0972 23.3762 46.966 23.7815 46.4535 24.7947C45.2972 27.0715 43.0919 28.3709 40.3382 28.3709C38.121 28.3709 36.7144 27.7033 35.8203 26.2252C35.3078 25.355 35.1647 24.8066 35.1647 23.6623C35.1528 21.6596 35.8084 20.1099 37.2746 18.6437C38.4667 17.4517 39.623 16.8676 41.2203 16.6411C41.8402 16.5576 43.4614 16.6768 44.0694 16.8676Z" fill="black"/>
<path d="M89.868 9.51244C89.8203 9.58397 90.7263 10.8714 93.0627 14.0661C97.2945 19.8475 98.26 21.2065 98.26 21.3615C98.26 21.4926 95.8402 23.7694 90.9289 28.2634C89.4984 29.5747 84.8852 33.8542 84.1104 34.6052C83.6931 34.9866 83.3594 35.3562 83.3594 35.4158C83.3594 35.5469 95.1607 35.5588 95.3633 35.4277C95.4349 35.38 96.913 33.9734 98.6415 32.2926C102.838 28.2277 103.112 27.9773 103.302 28.0489C103.398 28.0846 103.827 28.6091 104.268 29.229C104.697 29.8369 105.877 31.4939 106.879 32.9005L108.714 35.4634L114.746 35.4992C118.096 35.5111 120.79 35.4754 120.79 35.4277C120.79 35.3681 120.528 34.9747 120.218 34.5575C119.3 33.3416 115.02 27.7389 113.757 26.1058C111.373 23.0184 110.3 21.5522 110.3 21.3972C110.3 21.2542 113.125 18.5601 120.218 11.9204C121.577 10.6449 122.661 9.57205 122.626 9.51244C122.59 9.46476 119.932 9.41708 116.725 9.41708H110.884L108.536 11.6701C107.248 12.9098 106.032 14.0899 105.841 14.2926C105.639 14.4952 105.424 14.6621 105.341 14.6621C105.269 14.6621 104.566 13.7681 103.791 12.6595C103.016 11.5628 102.17 10.3826 101.92 10.0369L101.455 9.41708H95.6852C92.5263 9.41708 89.9037 9.46476 89.868 9.51244Z" fill="black"/>
</symbol><symbol viewBox="0 0 291 34.000076" id="brand_topeak">
<path fill-rule="evenodd" clip-rule="evenodd" d="M283.121 0.457641C281.057 1.40496 279.862 3.30493 279.853 5.65114C279.843 8.1063 280.898 9.77623 283.121 10.8281C283.842 11.1693 284.776 11.4005 285.425 11.3986C288.4 11.3906 291.007 8.62218 291 5.47885C290.997 4.27554 290.099 2.29719 289.154 1.40981C287.647 -0.00388413 285.027 -0.417364 283.121 0.457641ZM66.6881 0.986381C60.8302 1.37366 55.7405 2.63957 51.5729 4.7458C50.6621 5.20611 49.871 5.58271 49.8148 5.58271C49.7587 5.58271 49.7129 4.65456 49.7129 3.52016V1.45761H24.8565H0V4.36944V7.28128H8.12382H16.2476V20.3845V33.4878H24.8565H33.4653V20.3845V7.28128H40.2553C43.9899 7.28128 47.0454 7.36305 47.0454 7.46327C47.0454 7.56348 46.6685 7.94614 46.208 8.31376C45.1313 9.17348 43.4018 11.6439 42.6954 13.3318C41.9371 15.1432 41.7765 17.8515 42.3074 19.8798C44.2603 27.3431 51.9842 32.2694 64.0142 33.7246C67.0293 34.0893 74.0031 34.0281 77.1976 33.6091C86.6886 32.3643 94.1141 28.2916 96.8344 22.8392L97.7283 21.0472V27.2676V33.4878H106.337H114.946V20.3472V7.20654L118.601 7.37179C122.589 7.55183 124.292 7.82846 125.654 8.51759C126.954 9.17567 127.556 10.0616 127.556 11.3171C127.556 12.1909 127.404 12.5437 126.686 13.3393C125.223 14.959 121.732 16.2444 118.765 16.2553L117.613 16.2594V19.2038V22.1481L121.433 21.9804C131.14 21.5539 137.525 19.5355 141.477 15.6441L142.834 14.308V23.8979V33.4878H164.887H186.94L189.561 29.7366L192.183 25.9854L201.076 25.9755L209.969 25.9655L212.11 29.7182L214.251 33.4708L230.434 33.4793L246.618 33.4878L246.682 25.719L246.746 17.9502L253.293 24.2973C256.894 27.7883 260.614 31.3995 261.558 32.3223L263.274 34L271.97 33.1318C276.753 32.6543 280.701 32.2289 280.744 32.1864C280.786 32.144 276.457 28.4272 271.124 23.927C265.791 19.4268 261.37 15.6516 261.3 15.5375C261.229 15.4237 264.387 12.5095 268.317 9.06138C273.811 4.24035 275.366 2.75411 275.047 2.62744C274.82 2.53693 271.553 2.11666 267.788 1.69347L260.943 0.92402L259.63 2.10089C258.908 2.74804 255.687 5.82924 252.471 8.94806L246.625 14.6186V8.03811V1.45761H238.016H229.407V15.2087V28.9599L220.239 15.2694L211.071 1.57894L203.809 1.51682L196.548 1.4547L187.236 14.4381L177.923 27.4214H168.987H160.051V23.539V19.6566H168.539H177.026V16.7447V13.8329H168.539H160.051V10.5571V7.28128H168.66H177.269V4.36944V1.45761H160.051H142.834V4.27675V7.09565L141.826 6.08767C140.039 4.2998 136.532 2.94338 131.315 2.02299C129.521 1.70657 126.334 1.61873 113.43 1.53065L97.7283 1.42316L97.7218 7.44604L97.7155 13.4689L96.9615 12.0788C93.6019 5.88287 84.6941 1.71143 73.2356 0.967697C71.3017 0.842246 69.6648 0.753678 69.5981 0.770906C69.5314 0.788134 68.2219 0.885195 66.6881 0.986381ZM287.39 1.35643C288.326 1.82984 289.487 3.26198 289.81 4.3413C290.673 7.22231 288.352 10.4127 285.38 10.4304C284.165 10.4377 283.275 10.0664 282.304 9.14703C281.249 8.14827 280.817 7.11166 280.817 5.58077C280.817 2.09118 284.352 -0.180535 287.39 1.35643ZM283.242 5.46138C283.242 8.33269 283.268 8.49454 283.727 8.49454C284.148 8.49454 284.212 8.33269 284.212 7.28128C284.212 6.10975 284.236 6.06801 284.902 6.06801C285.457 6.06801 285.752 6.30363 286.417 7.28079C286.997 8.13129 287.407 8.49381 287.789 8.49405C288.089 8.4943 288.335 8.42732 288.335 8.34507C288.335 8.26281 287.941 7.6586 287.459 7.00223L286.584 5.8091L287.217 5.22213C288.036 4.46238 288.034 3.57888 287.211 2.93124C286.706 2.53329 286.224 2.42822 284.907 2.42822H283.242V5.46138ZM285.852 3.06713C286.171 3.15278 286.465 3.4726 286.555 3.8327C286.749 4.60385 285.947 5.34006 284.913 5.34006C284.234 5.34006 284.212 5.30269 284.212 4.12679C284.212 3.02927 284.264 2.91377 284.758 2.91693C285.058 2.91862 285.55 2.98632 285.852 3.06713ZM72.7506 7.78114C75.7787 8.26815 78.1366 9.79855 79.3442 12.0606C81.0658 15.2852 80.7461 20.8157 78.6645 23.8215C77.96 24.8384 75.8369 26.3606 74.6196 26.7212C72.8891 27.2336 70.0824 27.4365 68.122 27.1904C63.2181 26.5753 60.3966 23.7348 59.9479 18.9616C59.5784 15.0294 60.3549 12.1625 62.3228 10.1934C64.475 8.03981 68.5286 7.10196 72.7506 7.78114ZM202.004 9.96671C202.004 10.0934 203.15 12.5609 204.55 15.4502C205.951 18.3394 207.097 20.7407 207.097 20.7866C207.097 20.8325 204.478 20.8698 201.277 20.8698C197.621 20.8698 195.457 20.781 195.457 20.6311C195.457 20.4998 196.423 18.6707 197.604 16.5666C198.786 14.4626 200.157 12.0016 200.651 11.098C201.428 9.67553 202.004 9.19411 202.004 9.96671Z" fill="black"/>
</symbol><symbol viewBox="0 0 260 31" id="brand_trek">
<path fill-rule="evenodd" clip-rule="evenodd" d="M2.14362 0.127049C2.0998 0.196977 1.59958 1.53475 1.03196 3.1L0 5.9459L10.4575 5.97182C16.2092 5.98605 20.9151 6.00953 20.9151 6.02396C20.9151 6.03839 18.9024 11.6254 16.4425 18.4395C13.9825 25.2535 11.9698 30.8675 11.9698 30.9148C11.9698 30.9622 16.5934 30.9893 22.2445 30.9751L32.5192 30.9492L37.0156 18.4984L41.512 6.04754L51.1499 5.99672L60.7877 5.9459L61.7915 3.06382C62.3436 1.47865 62.7953 0.14077 62.7953 0.0908653C62.7953 0.0377079 50.2292 0 32.5093 0C8.39078 0 2.20705 0.025918 2.14362 0.127049ZM66.6481 0.279508C66.3104 1.16469 55.5781 30.8901 55.5781 30.9402C55.5781 30.9737 60.369 30.9893 66.2245 30.9751L76.8709 30.9492L81.3681 18.4984C83.8414 11.6504 85.8663 6.03606 85.8677 6.02213C85.869 6.00821 89.5181 5.99703 93.9768 5.99733C102.399 5.99784 102.593 6.00699 103.188 6.43021C103.54 6.68055 103.857 7.3405 103.859 7.82623C103.86 8.25098 103.003 10.8542 102.511 11.9184C101.965 13.1 101.264 13.7737 100.145 14.1939C99.6777 14.3693 99.1101 14.3854 91.7496 14.4328L83.8554 14.4836L90.2647 22.6402L96.6741 30.7967H108.911H121.148L115.694 24.673L110.239 18.5492L114.141 18.4881C118.388 18.4216 118.533 18.4037 119.783 17.7885C120.13 17.6176 120.643 17.2723 120.922 17.0211C121.952 16.0952 122.213 15.5309 124.45 9.39026C126.475 3.83109 126.595 3.36731 126.282 2.29166C126.149 1.83276 125.992 1.58303 125.58 1.17109C124.929 0.519581 124.233 0.238142 122.939 0.101742C122.364 0.0411647 111.426 0.00284573 94.3808 0.0017277L66.7546 0L66.6481 0.279508ZM132.702 0.431967C132.62 0.6696 130.895 5.46057 128.87 11.0787C126.844 16.6968 125.145 21.4307 125.095 21.5984C124.749 22.7505 124.794 23.9858 125.212 24.8061C125.423 25.2196 128.776 29.0831 129.493 29.7395C130.082 30.2781 130.711 30.6392 131.411 30.8398C131.916 30.9845 134.242 30.9979 154.778 30.9748L177.584 30.9492L178.637 28.1033C179.216 26.538 179.691 25.247 179.692 25.2344C179.693 25.2218 172.501 25.1989 163.709 25.1836L147.725 25.1557L147.135 24.8663C146.349 24.4803 146.018 23.9893 145.969 23.1365C145.936 22.567 145.998 22.3375 146.69 20.4803L147.447 18.4475L164.808 18.3967L182.169 18.3459L183.213 15.5C183.786 13.9348 184.259 12.597 184.262 12.527C184.267 12.4259 180.748 12.4 166.988 12.4C157.483 12.4 149.707 12.3666 149.707 12.3256C149.707 12.2847 150.222 10.8441 150.85 9.12437L151.994 5.99743L159.415 5.97649C163.496 5.96501 171.277 5.97182 176.705 5.99154L186.576 6.02752L186.681 5.73266C186.739 5.57045 187.226 4.23155 187.764 2.75727C188.301 1.2831 188.741 0.0595613 188.741 0.0384203C188.741 0.0172793 176.166 0 160.796 0H132.852L132.702 0.431967ZM193.551 0.127049C193.507 0.196977 190.973 7.16049 187.92 15.6016L182.369 30.9492L193.25 30.9751C199.234 30.9893 204.162 30.9665 204.201 30.9243C204.271 30.8484 215.373 0.179394 215.373 0.0611874C215.373 0.0275448 210.482 0 204.503 0C195.917 0 193.615 0.0267311 193.551 0.127049ZM223.097 7.16496C216.074 11.5273 211.567 14.3866 211.574 14.4748C211.581 14.5544 214.453 18.3051 217.955 22.8098L224.323 31H236.875C243.778 31 249.427 30.9759 249.427 30.9464C249.427 30.9171 246.204 27.2489 242.266 22.7952C236.055 15.7707 235.129 14.6822 235.278 14.5828C235.372 14.5197 240.939 11.2749 247.648 7.3718C254.357 3.46885 259.913 0.213544 259.995 0.137721C260.12 0.0217504 258.126 0 247.388 0H234.632L223.097 7.16496Z" fill="black"/>
</symbol><symbol viewBox="0 0 236.99805 58.999466" id="brand_wahoo">
<path fill-rule="evenodd" clip-rule="evenodd" d="M110.229 28.9005L110.298 57.8011L116.614 57.874L122.929 57.9471L123.011 46.9938C123.093 36.1277 123.099 36.0303 123.732 34.7565C125.23 31.746 128.216 30.3933 131.409 31.2795C132.571 31.6021 133.913 32.9259 134.581 34.4086C135.023 35.3884 135.08 36.5991 135.154 46.5809L135.236 57.6651H141.498H147.76L147.674 44.5408L147.589 31.4166L146.92 29.5126C145.027 24.1296 141.207 21.3592 135.208 21.0195C130.931 20.7774 127.642 21.9772 124.688 24.8561L122.957 26.5439L122.957 22.8601C122.957 20.834 122.876 14.8618 122.776 9.58818L122.597 0H116.378H110.16L110.229 28.9005ZM82.2578 21.1215C78.0765 21.7879 75.111 23.2918 72.1769 26.233C68.8139 29.6042 67.0465 33.6285 66.6913 38.7235C66.4223 42.581 67.4462 46.9875 69.3753 50.2761C70.7454 52.6112 74.003 55.7344 76.323 56.9366C80.3195 59.0077 84.6761 59.5376 88.7278 58.4452C91.0829 57.8101 93.7165 56.2474 94.6585 54.9257C94.9707 54.4875 95.3404 54.129 95.4798 54.129C95.6195 54.129 95.7335 54.988 95.7335 56.0382V57.9474L101.927 57.8742L108.12 57.8011L108.207 52.089C108.255 48.9473 108.21 40.9607 108.107 34.3406L107.92 22.3044H101.691H95.4613V23.8091V25.3142L94.0321 24.2479C92.278 22.9393 90.8809 22.2274 88.9363 21.6513C87.3843 21.1916 83.6672 20.8968 82.2578 21.1215ZM167.332 21.1106C162.664 21.9878 159.835 23.0628 157.047 25.0193C153.805 27.2944 151.634 30.2252 150.293 34.1394C149.626 36.0858 149.548 36.6959 149.547 39.9847C149.547 43.2999 149.62 43.8649 150.3 45.7975C152.194 51.1824 155.684 54.8109 161.147 57.0762C164.149 58.3214 166.975 58.8314 170.871 58.8314C177.33 58.8314 182.757 56.9138 186.911 53.1645C188.622 51.6203 190.634 48.4071 191.465 45.8913C192.109 43.9424 192.206 43.205 192.223 40.1207C192.239 37.1464 192.141 36.2607 191.607 34.5446C189.592 28.0682 184.677 23.6204 177.444 21.7283C175.413 21.1971 168.967 20.8032 167.332 21.1106ZM211.57 21.1065C211.271 21.1783 210.168 21.4313 209.12 21.6682C206.74 22.2065 203.254 23.7991 201.3 25.2413C195.781 29.3153 193.171 36.128 194.403 43.2488C195.741 50.9906 201.783 56.743 210.283 58.3677C212.653 58.8208 218.002 58.8739 220.3 58.4672C225.594 57.5304 230.59 54.7364 233.266 51.2158C238.655 44.1282 238.156 33.712 232.125 27.3773C229.507 24.6268 226.269 22.7981 221.915 21.6103C220.321 21.1756 212.807 20.8095 211.57 21.1065ZM0.0220559 22.7578C0.240118 23.3258 16.5588 54.5615 17.6587 56.5161L18.4661 57.951L22.5336 57.8762L26.6011 57.8011L30.4013 49.3689C32.4915 44.7312 34.4609 40.387 34.7777 39.7149L35.3538 38.4933L35.8387 39.4429C36.29 40.3267 39.73 47.8658 42.8501 54.809L44.1944 57.8011H48.3376H52.4808L54.0429 54.809C58.73 45.8318 59.9572 43.4762 62.4041 38.7607C63.8788 35.9183 66.3989 31.0834 68.0043 28.0165L70.9229 22.4404L64.2085 22.3675C60.5156 22.3275 57.3693 22.3433 57.2169 22.4029C57.0644 22.4625 54.987 26.7487 52.6003 31.928C50.2136 37.1072 48.1922 41.3431 48.1084 41.341C48.0245 41.3388 45.9874 37.0854 43.5813 31.8888L39.2068 22.4404L35.4044 22.3653L31.6024 22.2903L27.2553 31.7125C24.8645 36.8945 22.7958 41.1304 22.658 41.1253C22.5205 41.1201 20.4524 36.8833 18.0624 31.7101L13.7167 22.3044H6.78225C0.420883 22.3044 -0.137747 22.342 0.0220559 22.7578ZM90.5896 32.3762C91.8702 32.7209 93.7503 34.1241 94.5806 35.3549C96.1882 37.7385 96.3847 41.2333 95.063 43.9326C93.741 46.6326 91.2555 48.0089 87.7025 48.0089C85.8663 48.0089 85.2802 47.8889 83.9664 47.2443C77.2808 43.9642 78.6858 33.6337 86.0266 32.0942C87.2623 31.8352 88.9706 31.9407 90.5896 32.3762ZM174.445 32.5857C177.098 33.7463 178.747 36.2501 178.977 39.4679C179.326 44.3425 175.983 47.9316 171.088 47.9374C166.126 47.9433 162.704 44.6978 162.704 39.9847C162.704 36.1185 165.207 32.9926 169.101 31.9951C170.201 31.7133 173.212 32.0463 174.445 32.5857ZM218.57 32.3632C221.558 33.4806 223.346 35.9245 223.613 39.255C224.01 44.1938 220.629 47.8729 215.693 47.8729C212.11 47.8729 209.402 46.289 208.152 43.4631C207.285 41.5028 207.254 38.2379 208.084 36.4062C209.785 32.6575 214.499 30.8399 218.57 32.3632Z" fill="black"/>
</symbol><symbol viewBox="0 0 284 37.865334" id="brand_wilier">
<path d="M264.36 4.59371L261.247 9.67368H257.48L261.708 2.57724H266.858L266.704 7.38576L269.626 2.57724H273.431L269.164 9.67368H264.36V4.59371ZM277.581 2.57743L270.163 9.67388H274.506L276.082 8.08396H278.888L278.465 9.67388H282.77L284 2.57743H277.581ZM280.156 3.66323L279.349 6.61038H277.235L280.156 3.66323ZM278.696 22.8971C278.696 22.8971 265.167 20.8031 251.945 26.1157C251.945 26.1157 247.64 27.8607 242.721 30.6916L236.417 34.3367C236.417 34.3367 230.537 37.3614 225.156 37.8268C225.156 37.8268 219.429 38.2921 218.007 35.345C218.007 35.345 216.584 32.359 218.16 28.171C218.16 28.171 219.506 24.6421 222.388 21.3848C222.388 21.3848 219.736 21.8113 217.968 20.6867C217.968 20.6867 216.277 19.6785 216.354 17.9335C216.354 17.9335 216.431 16.1884 218.237 14.7924C218.237 14.7924 220.044 13.3576 222.542 13.0862C222.542 13.0862 225.002 12.8147 226.655 13.823C226.655 13.823 228.999 15.219 228.038 17.6232C228.038 17.6232 231.152 17.2742 237.532 17.8171C237.532 17.8171 231.805 23.4012 228.961 29.0241C228.961 29.0241 227.961 30.9242 228.192 32.2427C228.192 32.2427 228.384 33.5224 229.576 33.9489C229.576 33.9489 232.266 34.9184 237.109 31.7774L247.833 24.9911C247.833 24.9911 254.251 21.1909 259.479 18.9029C259.479 18.9029 273.239 13.0086 283.924 15.7231C283.924 15.7231 280.849 19.4071 278.696 22.8971ZM38.2434 4.63249C38.2434 4.63249 30.5178 4.01204 24.1375 5.52439C24.1375 5.52439 17.9494 6.99797 14.7977 10.0227C14.7977 10.0227 11.5306 13.2025 12.53 17.1191C12.53 17.1191 13.6446 21.4235 19.7559 25.7667C19.7559 25.7667 9.83948 25.3401 4.68911 21.0357C4.68911 21.0357 -3.1577e-05 17.1579 0.960858 11.9228C0.960858 11.9228 1.96018 6.68775 8.03301 3.35281C8.03301 3.35281 14.7977 -0.369919 25.1753 0.211757L37.7053 1.33633L47.6985 2.49968C47.6985 2.49968 58.153 3.5467 67.7619 1.72411C67.7619 1.72411 55.8469 9.90635 50.4274 15.6843C50.4274 15.6843 41.9716 24.7197 39.5117 36.0818C39.5117 36.0818 45.5846 35.2286 51.619 31.2345C51.619 31.2345 56.654 27.8995 60.3438 23.2849C60.3438 23.2849 71.3364 9.40223 84.5583 4.59371C84.5583 4.59371 76.1409 12.4657 73.3735 20.6092C73.3735 20.6092 70.9905 27.5893 72.451 35.9654C72.451 35.9654 75.2184 34.9572 78.1395 31.7386C78.1395 31.7386 80.2535 29.4119 83.3667 24.7973L88.6324 17.0804C88.6324 17.0804 91.7073 12.8147 94.3593 10.5268C94.3593 10.5268 104.199 1.60778 120.88 0.211757C120.88 0.211757 127.76 -0.331141 134.601 0.521984C134.601 0.521984 140.943 1.33633 145.632 3.19769C145.632 3.19769 138.33 6.26118 134.909 9.55735C134.909 9.55735 134.409 5.95096 130.719 3.77937C130.719 3.77937 127.03 1.60778 122.033 1.91801C122.033 1.91801 116.537 2.22823 111.54 5.48562C111.54 5.48562 105.813 9.20834 101.97 16.0721C101.97 16.0721 95.8583 26.9301 88.0943 32.0876C88.0943 32.0876 81.3297 36.5471 71.2595 37.8656C71.2595 37.8656 68.7997 36.5859 67.1469 33.9489C67.1469 33.9489 65.8017 31.7774 65.4173 29.567C65.4173 29.567 61.0357 32.9795 54.271 35.1899C54.271 35.1899 46.3148 37.788 37.6284 37.8268C37.6284 37.8268 29.6338 26.9301 34.3229 18.5152C34.3229 18.5152 39.358 9.40223 58.6142 4.39982L49.5434 5.3305L38.2434 4.63249Z" fill="black"/>
<path d="M121.764 14.8314C121.764 14.8314 120.073 13.8232 120.188 12.0782C120.188 12.0782 120.265 10.3332 122.071 8.93713C122.071 8.93713 123.878 7.50233 126.338 7.1921C126.338 7.1921 128.798 6.92066 130.489 7.96767C130.489 7.96767 132.18 8.97591 132.065 10.7209C132.065 10.7209 131.988 12.4272 130.181 13.862C130.181 13.862 128.375 15.2968 125.915 15.5682C125.915 15.5682 123.455 15.8397 121.764 14.8314ZM116.883 29.1794C116.883 29.1794 114.999 32.941 117.075 33.639C117.075 33.639 118.92 34.2206 124.839 32.6307L123.839 34.5309C123.839 34.5309 119.881 37.0902 113.846 37.7107C113.846 37.7107 107.312 38.3699 105.929 35.5003C105.929 35.5003 103.853 31.1571 107.966 24.6812C107.966 24.6812 109.58 22.1606 111.617 20.2216C111.617 20.2216 113.616 18.3603 114.961 17.9725C114.961 17.9725 117.459 17.2745 125.492 17.9725C125.492 17.9725 119.881 23.4015 116.883 29.1794ZM174.69 12.0782C174.69 12.0782 174.767 10.3332 176.573 8.93713C176.573 8.93713 178.418 7.50233 180.878 7.1921C180.878 7.1921 183.338 6.92066 184.99 7.96767C184.99 7.96767 186.682 8.97591 186.605 10.7209C186.605 10.7209 186.528 12.4272 184.721 13.862C184.721 13.862 182.915 15.2968 180.417 15.5682C180.417 15.5682 177.957 15.8397 176.304 14.8314C176.304 14.8314 174.613 13.8232 174.69 12.0782ZM163.889 14.909C163.889 14.909 161.545 19.1358 154.434 23.6341C154.434 23.6341 146.978 28.2875 140.482 29.1794V27.7059C140.482 27.7059 144.902 26.8527 149.783 23.9444C149.783 23.9444 154.319 21.2299 157.701 17.7786C157.701 17.7786 161.084 14.3273 161.699 11.7292C161.699 11.7292 162.352 8.85957 159.316 8.12279C159.316 8.12279 155.626 7.19211 149.745 12.1557C149.745 12.1557 144.172 16.8479 141.097 22.781C141.097 22.781 137.792 29.2182 140.482 32.049C140.482 32.049 143.672 35.4228 154.857 32.0878L153.819 34.0267C153.819 34.0267 147.862 36.8576 142.096 37.6331C142.096 37.6331 136.254 38.3699 132.641 36.7025C132.641 36.7025 128.721 34.9186 128.567 30.6918C128.567 30.6918 128.413 25.9608 133.064 18.942C133.064 18.942 137.945 11.5353 144.979 7.1921C144.979 7.1921 151.244 3.31427 157.048 3.00404C157.048 3.00404 162.659 2.69381 164.812 5.79608C164.812 5.79608 167.118 9.13102 163.889 14.909ZM192.14 2.57748H202.517L201.556 4.16739H198.481L195.214 9.67392H190.948L194.215 4.16739H191.179L192.14 2.57748ZM162.506 24.6812C162.506 24.6812 164.12 22.1606 166.157 20.2216C166.157 20.2216 168.156 18.3603 169.501 17.9725C169.501 17.9725 171.961 17.2745 179.994 17.9725C179.994 17.9725 174.267 23.5566 171.423 29.1794C171.423 29.1794 169.539 32.941 171.615 33.639C171.615 33.639 173.46 34.2206 179.379 32.6307L178.341 34.5309C178.341 34.5309 174.382 37.0902 168.386 37.7107C168.386 37.7107 161.852 38.3699 160.469 35.5003C160.469 35.5003 158.393 31.1571 162.506 24.6812ZM185.836 24.7199C185.836 24.7199 188.796 19.7563 194.215 16.4989C194.215 16.4989 199.058 13.6293 203.978 13.1252C203.978 13.1252 208.821 12.6211 210.896 14.7539C210.896 14.7539 213.164 17.0418 210.742 21.5401C210.742 21.5401 209.013 24.7587 204.939 27.4344C204.939 27.4344 200.48 30.3816 195.061 31.3123L194.945 30.1101C194.945 30.1101 202.479 27.861 206.438 23.4015C206.438 23.4015 208.09 21.5401 208.244 20.0665C208.244 20.0665 208.436 18.5542 206.899 18.0501C206.899 18.0501 202.978 16.7316 198.481 21.2299C198.481 21.2299 194.1 25.6118 193.831 30.5755C193.831 30.5755 193.754 34.8411 201.018 33.6777C201.018 33.6777 204.862 33.0961 209.666 31.2347L208.744 33.0573C208.744 33.0573 204.055 35.8493 198.558 37.0902C198.558 37.0902 193.1 38.3311 189.103 37.5556C189.103 37.5556 184.798 36.7025 183.722 33.6777C183.722 33.6777 182.531 30.2652 185.836 24.7199ZM236.648 5.09807L238.301 5.56341C238.301 5.56341 240.722 6.3002 239.953 7.54111C239.953 7.54111 238.608 9.79026 232.997 9.79026C232.997 9.79026 230.729 9.79026 229.614 9.20858L230.652 7.46355C230.652 7.46355 231.344 8.23912 233.611 8.23912C233.611 8.23912 235.572 8.23912 235.918 7.65745C235.918 7.65745 236.11 7.30844 235.38 7.03699L233.65 6.57165C233.65 6.57165 231.19 5.83486 231.959 4.55517C231.959 4.55517 233.266 2.42236 238.416 2.42236C238.416 2.42236 241.03 2.42236 242.183 3.0816L241.145 4.78784C241.145 4.78784 240.607 4.05106 238.378 4.05106C238.378 4.05106 236.379 4.05106 236.033 4.59395C236.033 4.59395 235.879 4.8654 236.648 5.09807ZM230.883 4.12861H226.04L225.271 5.36952H230.152L229.23 6.92066H224.349L223.618 8.12279H228.5L227.577 9.67392H218.429L222.696 2.57748H231.805L230.883 4.12861ZM252.752 4.16739H249.716L246.411 9.67392H242.144L245.45 4.16739H242.375L243.336 2.57748H253.713L252.752 4.16739ZM250.715 9.67392L254.943 2.57748H259.21L254.982 9.67392H250.715ZM203.67 2.57767L199.403 9.67412H203.516L205.361 6.68818L205.937 9.67412H210.281L209.204 6.53307C212.049 6.26162 213.048 4.55537 213.048 4.55537C214.239 2.57767 209.589 2.57767 209.589 2.57767H203.67ZM206.86 4.05125H207.398C209.128 4.05125 208.628 4.78804 208.628 4.78804C208.167 5.56361 206.783 5.56361 206.783 5.56361H205.976L206.86 4.05125ZM220.197 2.57748L215.931 9.67392H211.665L215.931 2.57748H220.197Z" fill="black"/>
</symbol></svg>