<svg width="123" height="36" viewBox="0 0 123 36" fill="none" xmlns="http://www.w3.org/2000/svg">
<path d="M1.47743 0.262278C1.41782 0.417244 1.2271 1.31128 1.04829 2.26493C0.535705 5.04241 0.154248 6.94969 0.0469635 7.28347C-0.0245597 7.49804 -0.0126392 7.65301 0.0708045 7.73645C0.166169 7.83181 1.54895 7.86757 4.66021 7.86757H9.13041L9.04696 8.49936C8.98736 9.09539 8.66551 10.8596 8.39133 12.159C8.33173 12.457 8.21253 13.0411 8.141 13.4702C8.06948 13.8994 7.96219 14.4596 7.90259 14.7219C7.84299 14.9841 7.68802 15.7828 7.5569 16.51C7.41385 17.2252 7.12776 18.7868 6.90127 19.9669C6.54365 21.8384 6.01915 24.5682 5.62577 26.702C5.55425 27.0596 5.44696 27.5484 5.38736 27.7868C5.32776 28.0252 5.28008 28.347 5.28008 28.4901C5.28008 28.6451 5.23239 28.9311 5.17279 29.1338C5.11319 29.3364 4.9463 30.147 4.80325 30.9338C4.67213 31.7206 4.50524 32.5788 4.44564 32.8411C4.12378 34.2596 3.9569 35.4398 4.05226 35.5351C4.11186 35.5947 6.43637 35.6305 9.57147 35.6186C14.2324 35.5828 14.9834 35.559 15.0549 35.404C15.1145 35.3086 15.2099 34.8437 15.2933 34.3908C15.4125 33.6517 15.5437 32.9484 16.0086 30.5762C16.4258 28.3947 17.2483 24.0437 17.4509 22.947C17.5821 22.2199 17.737 21.4212 17.7966 21.159C17.8562 20.8967 17.9635 20.3364 18.035 19.9073C18.1066 19.4782 18.2139 18.9179 18.2735 18.6557C18.3331 18.3934 18.488 17.559 18.6311 16.808C18.7622 16.057 18.9291 15.1987 18.9887 14.9007C19.0483 14.6027 19.3225 13.1841 19.5966 11.7417C19.8589 10.2994 20.145 8.84506 20.2284 8.5232L20.3595 7.92718L24.9489 7.86757L29.5384 7.80797L29.8006 6.43711C29.9556 5.68612 30.1344 4.76824 30.2059 4.41062C30.337 3.75499 30.4205 3.29009 30.6708 1.96691C30.7542 1.57354 30.8615 1.02519 30.9211 0.739099C30.9807 0.453006 31.0046 0.178834 30.9688 0.107311C30.9211 0.047708 25.3542 2.59182e-05 16.235 2.59182e-05H1.58471L1.47743 0.262278Z" fill="black"/>
<path d="M74.0619 8.4159C73.895 8.43974 73.3943 8.52318 72.9413 8.59471C70.0327 9.07153 67.0526 10.6689 64.7638 12.9815C62.4155 15.3536 61.0208 17.9404 60.1148 21.6358C59.7095 23.245 59.7334 25.7126 60.1625 27.3815C61.14 31.2556 63.0831 33.747 66.5042 35.5232L67.4102 36H72.8817C75.9691 36 78.4486 35.9523 78.5678 35.8927C78.6751 35.8331 79.0685 35.6901 79.4261 35.5947C80.2844 35.3444 80.3321 35.2967 80.4155 34.8079C80.5824 33.902 80.7493 32.9364 80.8446 32.3642C80.9042 32.0305 81.095 30.8742 81.2857 29.7775C81.4645 28.6808 81.5837 27.751 81.548 27.7033C81.5003 27.6676 80.9162 27.7748 80.2367 27.9536C78.9135 28.2874 76.744 28.6093 75.8023 28.6093C73.6685 28.6093 71.6062 27.751 70.6645 26.4636C70.0208 25.5934 69.7705 24.8781 69.5917 23.3881C69.2936 20.9086 71.5824 17.8212 74.4195 16.8795C76.7201 16.1166 79.7956 16.4146 82.5135 17.6543C83.0976 17.9285 83.3599 17.8808 83.3599 17.5232C83.3599 17.3921 83.4076 17.0583 83.4791 16.7841C83.8009 15.3417 84.54 10.8358 84.4685 10.6689C84.397 10.4543 83.0142 9.79868 81.5718 9.2861C79.891 8.67815 78.4844 8.43974 76.3864 8.40398C75.2778 8.38014 74.2287 8.38014 74.0619 8.4159Z" fill="black"/>
<path d="M38.9435 8.64239C35.6058 9.16689 32.6852 10.7166 30.2177 13.2795C28.966 14.5907 28.1197 15.747 27.3687 17.1656C25.0919 21.5046 24.7462 26.1894 26.427 30.0636C27.0349 31.4821 27.5356 32.2331 28.525 33.2583C29.2402 33.9974 30.9448 35.2848 31.2071 35.2848C31.2429 35.2848 31.6005 35.4517 32.0058 35.6424L32.7448 36H36.5952C38.717 36 40.5409 35.9523 40.6601 35.9046C42.6508 34.9391 43.2468 34.5934 43.9501 34.0093C45.2972 32.8649 45.3329 32.8649 45.1184 34.0093C45.0468 34.4146 44.9634 34.9391 44.9515 35.1656L44.9157 35.5828H49.5647H54.2018L54.2852 35.1656C54.321 34.9391 54.476 33.9735 54.619 33.0199C54.8574 31.3868 54.9409 30.8861 55.227 29.2291C55.2866 28.8596 55.4535 27.8464 55.5846 27C55.7157 26.1417 55.8826 25.1285 55.9422 24.7351C56.0018 24.3417 56.1687 23.3166 56.2998 22.4702C56.4309 21.6119 56.5859 20.6225 56.6574 20.2649C56.717 19.9073 56.9435 18.5364 57.1462 17.2252C57.4799 15.0795 57.7184 13.5656 58.0998 11.2053C58.1594 10.7762 58.2548 10.204 58.2905 9.91788L58.3621 9.41722L53.6654 9.44106L48.9687 9.47682L48.9329 9.83444C48.8852 10.4066 48.6468 11.5629 48.5634 11.6225C48.5157 11.6464 48.1819 11.3603 47.8124 10.9907C46.9541 10.1325 46.0839 9.60795 44.7965 9.15497C42.8892 8.49934 40.9462 8.33245 38.9435 8.64239ZM44.0694 16.8676C46.3223 17.5589 47.5621 19.6808 47.2402 22.2795C47.0972 23.3762 46.966 23.7815 46.4535 24.7947C45.2972 27.0715 43.0919 28.3709 40.3382 28.3709C38.121 28.3709 36.7144 27.7033 35.8203 26.2252C35.3078 25.355 35.1647 24.8066 35.1647 23.6623C35.1528 21.6596 35.8084 20.1099 37.2746 18.6437C38.4667 17.4517 39.623 16.8676 41.2203 16.6411C41.8402 16.5576 43.4614 16.6768 44.0694 16.8676Z" fill="black"/>
<path d="M89.868 9.51244C89.8203 9.58397 90.7263 10.8714 93.0627 14.0661C97.2945 19.8475 98.26 21.2065 98.26 21.3615C98.26 21.4926 95.8402 23.7694 90.9289 28.2634C89.4984 29.5747 84.8852 33.8542 84.1104 34.6052C83.6931 34.9866 83.3594 35.3562 83.3594 35.4158C83.3594 35.5469 95.1607 35.5588 95.3633 35.4277C95.4349 35.38 96.913 33.9734 98.6415 32.2926C102.838 28.2277 103.112 27.9773 103.302 28.0489C103.398 28.0846 103.827 28.6091 104.268 29.229C104.697 29.8369 105.877 31.4939 106.879 32.9005L108.714 35.4634L114.746 35.4992C118.096 35.5111 120.79 35.4754 120.79 35.4277C120.79 35.3681 120.528 34.9747 120.218 34.5575C119.3 33.3416 115.02 27.7389 113.757 26.1058C111.373 23.0184 110.3 21.5522 110.3 21.3972C110.3 21.2542 113.125 18.5601 120.218 11.9204C121.577 10.6449 122.661 9.57205 122.626 9.51244C122.59 9.46476 119.932 9.41708 116.725 9.41708H110.884L108.536 11.6701C107.248 12.9098 106.032 14.0899 105.841 14.2926C105.639 14.4952 105.424 14.6621 105.341 14.6621C105.269 14.6621 104.566 13.7681 103.791 12.6595C103.016 11.5628 102.17 10.3826 101.92 10.0369L101.455 9.41708H95.6852C92.5263 9.41708 89.9037 9.46476 89.868 9.51244Z" fill="black"/>
</svg>
