<svg width="237" height="59" viewBox="0 0 237 59" fill="none" xmlns="http://www.w3.org/2000/svg">
<path fill-rule="evenodd" clip-rule="evenodd" d="M110.229 28.9005L110.298 57.8011L116.614 57.874L122.929 57.9471L123.011 46.9938C123.093 36.1277 123.099 36.0303 123.732 34.7565C125.23 31.746 128.216 30.3933 131.409 31.2795C132.571 31.6021 133.913 32.9259 134.581 34.4086C135.023 35.3884 135.08 36.5991 135.154 46.5809L135.236 57.6651H141.498H147.76L147.674 44.5408L147.589 31.4166L146.92 29.5126C145.027 24.1296 141.207 21.3592 135.208 21.0195C130.931 20.7774 127.642 21.9772 124.688 24.8561L122.957 26.5439L122.957 22.8601C122.957 20.834 122.876 14.8618 122.776 9.58818L122.597 0H116.378H110.16L110.229 28.9005ZM82.2578 21.1215C78.0765 21.7879 75.111 23.2918 72.1769 26.233C68.8139 29.6042 67.0465 33.6285 66.6913 38.7235C66.4223 42.581 67.4462 46.9875 69.3753 50.2761C70.7454 52.6112 74.003 55.7344 76.323 56.9366C80.3195 59.0077 84.6761 59.5376 88.7278 58.4452C91.0829 57.8101 93.7165 56.2474 94.6585 54.9257C94.9707 54.4875 95.3404 54.129 95.4798 54.129C95.6195 54.129 95.7335 54.988 95.7335 56.0382V57.9474L101.927 57.8742L108.12 57.8011L108.207 52.089C108.255 48.9473 108.21 40.9607 108.107 34.3406L107.92 22.3044H101.691H95.4613V23.8091V25.3142L94.0321 24.2479C92.278 22.9393 90.8809 22.2274 88.9363 21.6513C87.3843 21.1916 83.6672 20.8968 82.2578 21.1215ZM167.332 21.1106C162.664 21.9878 159.835 23.0628 157.047 25.0193C153.805 27.2944 151.634 30.2252 150.293 34.1394C149.626 36.0858 149.548 36.6959 149.547 39.9847C149.547 43.2999 149.62 43.8649 150.3 45.7975C152.194 51.1824 155.684 54.8109 161.147 57.0762C164.149 58.3214 166.975 58.8314 170.871 58.8314C177.33 58.8314 182.757 56.9138 186.911 53.1645C188.622 51.6203 190.634 48.4071 191.465 45.8913C192.109 43.9424 192.206 43.205 192.223 40.1207C192.239 37.1464 192.141 36.2607 191.607 34.5446C189.592 28.0682 184.677 23.6204 177.444 21.7283C175.413 21.1971 168.967 20.8032 167.332 21.1106ZM211.57 21.1065C211.271 21.1783 210.168 21.4313 209.12 21.6682C206.74 22.2065 203.254 23.7991 201.3 25.2413C195.781 29.3153 193.171 36.128 194.403 43.2488C195.741 50.9906 201.783 56.743 210.283 58.3677C212.653 58.8208 218.002 58.8739 220.3 58.4672C225.594 57.5304 230.59 54.7364 233.266 51.2158C238.655 44.1282 238.156 33.712 232.125 27.3773C229.507 24.6268 226.269 22.7981 221.915 21.6103C220.321 21.1756 212.807 20.8095 211.57 21.1065ZM0.0220559 22.7578C0.240118 23.3258 16.5588 54.5615 17.6587 56.5161L18.4661 57.951L22.5336 57.8762L26.6011 57.8011L30.4013 49.3689C32.4915 44.7312 34.4609 40.387 34.7777 39.7149L35.3538 38.4933L35.8387 39.4429C36.29 40.3267 39.73 47.8658 42.8501 54.809L44.1944 57.8011H48.3376H52.4808L54.0429 54.809C58.73 45.8318 59.9572 43.4762 62.4041 38.7607C63.8788 35.9183 66.3989 31.0834 68.0043 28.0165L70.9229 22.4404L64.2085 22.3675C60.5156 22.3275 57.3693 22.3433 57.2169 22.4029C57.0644 22.4625 54.987 26.7487 52.6003 31.928C50.2136 37.1072 48.1922 41.3431 48.1084 41.341C48.0245 41.3388 45.9874 37.0854 43.5813 31.8888L39.2068 22.4404L35.4044 22.3653L31.6024 22.2903L27.2553 31.7125C24.8645 36.8945 22.7958 41.1304 22.658 41.1253C22.5205 41.1201 20.4524 36.8833 18.0624 31.7101L13.7167 22.3044H6.78225C0.420883 22.3044 -0.137747 22.342 0.0220559 22.7578ZM90.5896 32.3762C91.8702 32.7209 93.7503 34.1241 94.5806 35.3549C96.1882 37.7385 96.3847 41.2333 95.063 43.9326C93.741 46.6326 91.2555 48.0089 87.7025 48.0089C85.8663 48.0089 85.2802 47.8889 83.9664 47.2443C77.2808 43.9642 78.6858 33.6337 86.0266 32.0942C87.2623 31.8352 88.9706 31.9407 90.5896 32.3762ZM174.445 32.5857C177.098 33.7463 178.747 36.2501 178.977 39.4679C179.326 44.3425 175.983 47.9316 171.088 47.9374C166.126 47.9433 162.704 44.6978 162.704 39.9847C162.704 36.1185 165.207 32.9926 169.101 31.9951C170.201 31.7133 173.212 32.0463 174.445 32.5857ZM218.57 32.3632C221.558 33.4806 223.346 35.9245 223.613 39.255C224.01 44.1938 220.629 47.8729 215.693 47.8729C212.11 47.8729 209.402 46.289 208.152 43.4631C207.285 41.5028 207.254 38.2379 208.084 36.4062C209.785 32.6575 214.499 30.8399 218.57 32.3632Z" fill="black"/>
</svg>
