<svg width="245" height="32" viewBox="0 0 245 32" fill="none" xmlns="http://www.w3.org/2000/svg">
<path d="M166.545 15.4214C164.293 23.9127 162.439 30.9171 162.415 30.9915C162.381 31.1319 162.828 31.1401 170.948 31.1401H179.507L179.639 30.6611C179.714 30.405 181.121 25.1021 182.76 18.8741C184.407 12.6543 185.764 7.54964 185.773 7.54138C185.789 7.52486 188.107 7.52486 190.929 7.53312L196.061 7.5579L192.982 19.2871L189.903 31.0162L198.18 31.041C202.733 31.0493 206.466 31.0493 206.482 31.041C206.49 31.0245 207.898 25.7381 209.594 19.2871L212.69 7.5579L217.797 7.53312C220.603 7.52486 222.904 7.54138 222.904 7.58268C222.904 7.6405 216.911 30.5867 216.812 30.9171C216.771 31.0493 217.201 31.0575 225.321 31.041L233.871 31.0162L234.012 30.4793C234.169 29.9094 235.212 25.5068 236.52 19.8653C236.959 17.9985 237.679 14.9754 238.134 13.1334C239.044 9.41639 239.169 8.68126 239.102 7.4753C238.978 5.46812 238.275 3.81613 236.95 2.42845C235.783 1.19772 234.169 0.346938 232.506 0.0826189C232.141 0.033059 221.836 1.91107e-05 201.301 1.91107e-05H170.626L166.545 15.4214Z" fill="black"/>
<path d="M68.0135 0.247825C66.6726 0.404764 65.2738 0.784723 64.1729 1.28032C62.1616 2.19718 60.324 4.00611 59.2646 6.11241C58.8755 6.88059 58.6521 7.51661 58.2382 8.98688C57.5098 11.564 52.3945 30.818 52.3945 30.9749C52.3945 31.0328 55.2005 31.0493 60.9366 31.041L69.4786 31.0162L71.1009 24.9452C71.9948 21.6081 72.7481 18.8245 72.7646 18.7584C72.7894 18.6924 74.0641 20.1461 75.9016 22.3515C81.5384 29.1082 82.4323 30.0994 83.2518 30.5124C84.2616 31.0245 83.8974 31.008 93.2257 31.0328C99.2267 31.0575 101.726 31.041 101.685 30.9749C101.652 30.9254 99.5246 28.4061 96.9504 25.3747L92.2739 19.8653L97.5216 19.8405L102.761 19.824L103.605 16.4952C104.077 14.6697 104.681 12.3074 104.954 11.2501C105.534 8.99514 105.65 8.16088 105.534 7.10361C105.17 3.93177 102.869 1.32162 99.5991 0.388244L98.9535 0.206525L83.7649 0.198265C75.4133 0.190005 68.3198 0.214785 68.0135 0.247825ZM88.963 7.03753C88.9382 7.09535 88.4995 8.7556 87.978 10.7132L87.0344 14.2898H80.5037H73.9813L74.0145 14.0998C74.0393 14.0007 74.4945 12.3487 75.0325 10.4241L76.0093 6.93841H82.5068C87.6635 6.93841 88.9878 6.96319 88.963 7.03753Z" fill="black"/>
<path d="M121.468 0.305507C118.066 0.743285 115.583 2.58526 113.861 5.93055C112.876 7.85513 112.793 8.13596 108.804 23.2104C107.728 27.2743 106.817 30.7105 106.776 30.8344L106.701 31.0657L113.215 31.0326C120.069 30.9996 120.234 30.9913 121.559 30.6031C122.759 30.2562 123.702 29.5376 124.149 28.629C124.712 27.4891 125.482 25.1267 126.268 22.1531L126.666 20.6498H133.445C138.808 20.6498 140.215 20.6746 140.215 20.7489C140.215 20.8068 139.586 23.1609 138.825 25.9775L137.434 31.0987L146.001 31.1235C150.711 31.1317 154.576 31.1317 154.585 31.1152C154.618 31.0822 162.812 0.396366 162.812 0.313767C162.812 0.247687 121.964 0.239427 121.468 0.305507ZM143.361 7.02087C143.361 7.11173 141.813 13.092 141.565 13.9345L141.449 14.3722H134.951C128.801 14.3722 128.454 14.364 128.495 14.2236C128.52 14.1492 128.95 12.522 129.455 10.614C129.96 8.7059 130.39 7.09521 130.407 7.03739C130.457 6.90523 143.361 6.88871 143.361 7.02087Z" fill="black"/>
<path d="M15.6024 0.388074C11.348 0.924973 8.52547 2.86607 6.87831 6.3683C6.28236 7.65685 6.05888 8.37547 4.88352 12.8193C4.29584 15.0578 3.74127 17.1393 3.65022 17.4449L3.48468 18.0066L17.7048 18.0231L31.925 18.0479L31.1635 20.9389C30.7413 22.5248 30.3523 23.9868 30.3027 24.1768L30.2033 24.532H16.008H1.82097L1.7382 24.7137C1.66371 24.8789 0 30.9252 0 31.0161C0 31.0409 8.34337 31.0574 18.5325 31.0574C34.7309 31.0574 37.1975 31.0409 38.0501 30.9335C41.0216 30.5453 43.0578 29.5954 44.7711 27.7864C46.3521 26.1262 47.1798 24.3585 48.2144 20.4846C48.471 19.5099 49.0504 17.3623 49.5057 15.7269C49.9526 14.0831 50.3251 12.6954 50.3251 12.6459C50.3251 12.5798 46.5259 12.555 36.5436 12.555C25.5764 12.555 22.7622 12.5302 22.7622 12.4476C22.7622 12.3981 23.0933 11.1178 23.4906 9.62273L24.219 6.89694L38.0584 6.87216L51.8978 6.85564L51.9474 6.62436C51.9805 6.50046 52.3861 5.03844 52.8496 3.36167L53.6939 0.330254L34.7723 0.338514C24.3679 0.346774 15.7431 0.371554 15.6024 0.388074Z" fill="black"/>
<path d="M240.708 24.1688C240.037 24.3505 239.491 24.6809 239.003 25.2095C238.373 25.8868 238.183 26.4155 238.175 27.4645C238.175 28.2161 238.2 28.34 238.431 28.8274C238.986 30.0003 239.93 30.6694 241.254 30.8428C241.767 30.9089 242.678 30.7354 243.182 30.4794C243.961 30.0829 244.631 29.2486 244.879 28.3813C245.086 27.6792 245.02 26.7046 244.73 26.0768C244.043 24.5818 242.289 23.7475 240.708 24.1688ZM242.537 24.8378C242.769 24.9039 243.108 25.1187 243.348 25.3334C244.838 26.6715 244.523 29.0834 242.752 29.992C242.206 30.2729 241.221 30.3059 240.575 30.0581C239.913 29.8103 239.3 29.1991 239.052 28.5383C238.804 27.8775 238.829 26.7459 239.118 26.2007C239.789 24.9122 241.105 24.3835 242.537 24.8378Z" fill="black"/>
<path d="M240.286 27.4562V29.4055H240.575H240.865V28.5795V27.7535H241.221H241.569L242.065 28.5795L242.562 29.4055H242.91H243.265L242.959 28.9264C242.794 28.6704 242.554 28.2987 242.421 28.1087C242.297 27.9187 242.189 27.7453 242.189 27.7205C242.189 27.704 242.297 27.6627 242.438 27.6296C242.967 27.514 243.307 26.7788 243.092 26.2089C242.876 25.6555 242.653 25.5646 241.395 25.5398L240.286 25.5068V27.4562ZM242.305 26.1924C242.57 26.3989 242.595 26.7706 242.355 27.0101C242.214 27.1505 242.082 27.1753 241.527 27.1753H240.865V26.5971V26.0189H241.478C241.966 26.0189 242.123 26.052 242.305 26.1924Z" fill="black"/>
</svg>
