<svg width="260" height="31" viewBox="0 0 260 31" fill="none" xmlns="http://www.w3.org/2000/svg">
<path fill-rule="evenodd" clip-rule="evenodd" d="M2.14362 0.127049C2.0998 0.196977 1.59958 1.53475 1.03196 3.1L0 5.9459L10.4575 5.97182C16.2092 5.98605 20.9151 6.00953 20.9151 6.02396C20.9151 6.03839 18.9024 11.6254 16.4425 18.4395C13.9825 25.2535 11.9698 30.8675 11.9698 30.9148C11.9698 30.9622 16.5934 30.9893 22.2445 30.9751L32.5192 30.9492L37.0156 18.4984L41.512 6.04754L51.1499 5.99672L60.7877 5.9459L61.7915 3.06382C62.3436 1.47865 62.7953 0.14077 62.7953 0.0908653C62.7953 0.0377079 50.2292 0 32.5093 0C8.39078 0 2.20705 0.025918 2.14362 0.127049ZM66.6481 0.279508C66.3104 1.16469 55.5781 30.8901 55.5781 30.9402C55.5781 30.9737 60.369 30.9893 66.2245 30.9751L76.8709 30.9492L81.3681 18.4984C83.8414 11.6504 85.8663 6.03606 85.8677 6.02213C85.869 6.00821 89.5181 5.99703 93.9768 5.99733C102.399 5.99784 102.593 6.00699 103.188 6.43021C103.54 6.68055 103.857 7.3405 103.859 7.82623C103.86 8.25098 103.003 10.8542 102.511 11.9184C101.965 13.1 101.264 13.7737 100.145 14.1939C99.6777 14.3693 99.1101 14.3854 91.7496 14.4328L83.8554 14.4836L90.2647 22.6402L96.6741 30.7967H108.911H121.148L115.694 24.673L110.239 18.5492L114.141 18.4881C118.388 18.4216 118.533 18.4037 119.783 17.7885C120.13 17.6176 120.643 17.2723 120.922 17.0211C121.952 16.0952 122.213 15.5309 124.45 9.39026C126.475 3.83109 126.595 3.36731 126.282 2.29166C126.149 1.83276 125.992 1.58303 125.58 1.17109C124.929 0.519581 124.233 0.238142 122.939 0.101742C122.364 0.0411647 111.426 0.00284573 94.3808 0.0017277L66.7546 0L66.6481 0.279508ZM132.702 0.431967C132.62 0.6696 130.895 5.46057 128.87 11.0787C126.844 16.6968 125.145 21.4307 125.095 21.5984C124.749 22.7505 124.794 23.9858 125.212 24.8061C125.423 25.2196 128.776 29.0831 129.493 29.7395C130.082 30.2781 130.711 30.6392 131.411 30.8398C131.916 30.9845 134.242 30.9979 154.778 30.9748L177.584 30.9492L178.637 28.1033C179.216 26.538 179.691 25.247 179.692 25.2344C179.693 25.2218 172.501 25.1989 163.709 25.1836L147.725 25.1557L147.135 24.8663C146.349 24.4803 146.018 23.9893 145.969 23.1365C145.936 22.567 145.998 22.3375 146.69 20.4803L147.447 18.4475L164.808 18.3967L182.169 18.3459L183.213 15.5C183.786 13.9348 184.259 12.597 184.262 12.527C184.267 12.4259 180.748 12.4 166.988 12.4C157.483 12.4 149.707 12.3666 149.707 12.3256C149.707 12.2847 150.222 10.8441 150.85 9.12437L151.994 5.99743L159.415 5.97649C163.496 5.96501 171.277 5.97182 176.705 5.99154L186.576 6.02752L186.681 5.73266C186.739 5.57045 187.226 4.23155 187.764 2.75727C188.301 1.2831 188.741 0.0595613 188.741 0.0384203C188.741 0.0172793 176.166 0 160.796 0H132.852L132.702 0.431967ZM193.551 0.127049C193.507 0.196977 190.973 7.16049 187.92 15.6016L182.369 30.9492L193.25 30.9751C199.234 30.9893 204.162 30.9665 204.201 30.9243C204.271 30.8484 215.373 0.179394 215.373 0.0611874C215.373 0.0275448 210.482 0 204.503 0C195.917 0 193.615 0.0267311 193.551 0.127049ZM223.097 7.16496C216.074 11.5273 211.567 14.3866 211.574 14.4748C211.581 14.5544 214.453 18.3051 217.955 22.8098L224.323 31H236.875C243.778 31 249.427 30.9759 249.427 30.9464C249.427 30.9171 246.204 27.2489 242.266 22.7952C236.055 15.7707 235.129 14.6822 235.278 14.5828C235.372 14.5197 240.939 11.2749 247.648 7.3718C254.357 3.46885 259.913 0.213544 259.995 0.137721C260.12 0.0217504 258.126 0 247.388 0H234.632L223.097 7.16496Z" fill="black"/>
</svg>
