<svg width="235" height="32" viewBox="0 0 235 32" fill="none" xmlns="http://www.w3.org/2000/svg">
<path fill-rule="evenodd" clip-rule="evenodd" d="M44.0627 0H35.5439V32H44.0627V24.8224H56.9877V32H65.8002V0H56.9877V18.8411H44.0627V0Z" fill="black"/>
<path fill-rule="evenodd" clip-rule="evenodd" d="M72.8501 0V32H81.9563V0H72.8501Z" fill="black"/>
<path fill-rule="evenodd" clip-rule="evenodd" d="M116.913 5.08411C118.675 5.38318 121.025 5.68224 121.025 9.57009V32H129.544V10.1682C129.544 5.38318 129.838 0.299065 122.494 0H89.0063V32H97.5251V5.38318H105.163V32H113.388V5.08411H116.913Z" fill="black"/>
<path fill-rule="evenodd" clip-rule="evenodd" d="M191.819 10.7664V32H200.631V8.6729C200.631 3.28972 197.4 0 192.112 0H170.962V32H179.775V5.38318H188C190.937 5.38318 191.819 8.37383 191.819 10.7664Z" fill="black"/>
<path fill-rule="evenodd" clip-rule="evenodd" d="M6.75625 19.1402C6.75625 19.1402 7.05 19.1402 7.34375 19.1402H18.8C20.8562 19.1402 22.0312 20.9346 22.325 22.4299C22.6187 24.5234 21.4437 26.6168 18.8 26.6168H0.88125V32H19.3875C21.15 32 22.6187 32 23.5 32C24.0875 32 25.2625 31.7009 25.85 31.4019C28.7875 29.9065 29.9625 26.9159 30.2562 23.9252C30.2562 23.028 30.2562 22.1308 30.2562 21.2336C29.9625 14.9533 28.2 12.2617 21.4437 12.2617H11.1625C8.8125 12.2617 8.225 10.1682 8.225 8.37383C8.225 5.08411 10.8687 5.38318 13.8062 5.38318H29.375V0H6.75625C6.16875 0 4.99375 0.299065 4.40625 0.299065C1.46875 1.49533 0 5.08411 0 8.97196C0 13.757 1.46875 19.1402 6.75625 19.1402Z" fill="black"/>
<path fill-rule="evenodd" clip-rule="evenodd" d="M235 24.5234V7.47664C235 3.28972 231.769 0 227.656 0H212.969C208.856 0 205.625 3.28972 205.625 7.47664V24.5234C205.625 28.7103 208.856 32 212.969 32H227.656C231.769 32 235 28.7103 235 24.5234ZM217.669 5.38318H222.662C224.719 5.38318 226.187 6.8785 226.187 8.97196V23.3271C226.187 25.1215 224.719 26.9159 222.662 26.9159H217.669C215.906 26.9159 214.144 25.1215 214.144 23.3271V8.97196C214.144 6.8785 215.906 5.38318 217.669 5.38318Z" fill="black"/>
<path fill-rule="evenodd" clip-rule="evenodd" d="M134.831 8.6729V32H143.35V25.1215H157.156V32H165.969V8.97196C165.969 2.99065 162.737 0 158.037 0H141.881C137.181 0 134.831 4.18692 134.831 8.6729ZM157.156 9.27103V19.1402H143.644V9.27103C143.644 6.57944 145.7 5.38318 146.581 5.38318H153.631C155.394 5.38318 157.156 6.8785 157.156 9.27103Z" fill="black"/>
</svg>
