<svg width="291" height="34" viewBox="0 0 291 34" fill="none" xmlns="http://www.w3.org/2000/svg">
<path fill-rule="evenodd" clip-rule="evenodd" d="M283.121 0.457641C281.057 1.40496 279.862 3.30493 279.853 5.65114C279.843 8.1063 280.898 9.77623 283.121 10.8281C283.842 11.1693 284.776 11.4005 285.425 11.3986C288.4 11.3906 291.007 8.62218 291 5.47885C290.997 4.27554 290.099 2.29719 289.154 1.40981C287.647 -0.00388413 285.027 -0.417364 283.121 0.457641ZM66.6881 0.986381C60.8302 1.37366 55.7405 2.63957 51.5729 4.7458C50.6621 5.20611 49.871 5.58271 49.8148 5.58271C49.7587 5.58271 49.7129 4.65456 49.7129 3.52016V1.45761H24.8565H0V4.36944V7.28128H8.12382H16.2476V20.3845V33.4878H24.8565H33.4653V20.3845V7.28128H40.2553C43.9899 7.28128 47.0454 7.36305 47.0454 7.46327C47.0454 7.56348 46.6685 7.94614 46.208 8.31376C45.1313 9.17348 43.4018 11.6439 42.6954 13.3318C41.9371 15.1432 41.7765 17.8515 42.3074 19.8798C44.2603 27.3431 51.9842 32.2694 64.0142 33.7246C67.0293 34.0893 74.0031 34.0281 77.1976 33.6091C86.6886 32.3643 94.1141 28.2916 96.8344 22.8392L97.7283 21.0472V27.2676V33.4878H106.337H114.946V20.3472V7.20654L118.601 7.37179C122.589 7.55183 124.292 7.82846 125.654 8.51759C126.954 9.17567 127.556 10.0616 127.556 11.3171C127.556 12.1909 127.404 12.5437 126.686 13.3393C125.223 14.959 121.732 16.2444 118.765 16.2553L117.613 16.2594V19.2038V22.1481L121.433 21.9804C131.14 21.5539 137.525 19.5355 141.477 15.6441L142.834 14.308V23.8979V33.4878H164.887H186.94L189.561 29.7366L192.183 25.9854L201.076 25.9755L209.969 25.9655L212.11 29.7182L214.251 33.4708L230.434 33.4793L246.618 33.4878L246.682 25.719L246.746 17.9502L253.293 24.2973C256.894 27.7883 260.614 31.3995 261.558 32.3223L263.274 34L271.97 33.1318C276.753 32.6543 280.701 32.2289 280.744 32.1864C280.786 32.144 276.457 28.4272 271.124 23.927C265.791 19.4268 261.37 15.6516 261.3 15.5375C261.229 15.4237 264.387 12.5095 268.317 9.06138C273.811 4.24035 275.366 2.75411 275.047 2.62744C274.82 2.53693 271.553 2.11666 267.788 1.69347L260.943 0.92402L259.63 2.10089C258.908 2.74804 255.687 5.82924 252.471 8.94806L246.625 14.6186V8.03811V1.45761H238.016H229.407V15.2087V28.9599L220.239 15.2694L211.071 1.57894L203.809 1.51682L196.548 1.4547L187.236 14.4381L177.923 27.4214H168.987H160.051V23.539V19.6566H168.539H177.026V16.7447V13.8329H168.539H160.051V10.5571V7.28128H168.66H177.269V4.36944V1.45761H160.051H142.834V4.27675V7.09565L141.826 6.08767C140.039 4.2998 136.532 2.94338 131.315 2.02299C129.521 1.70657 126.334 1.61873 113.43 1.53065L97.7283 1.42316L97.7218 7.44604L97.7155 13.4689L96.9615 12.0788C93.6019 5.88287 84.6941 1.71143 73.2356 0.967697C71.3017 0.842246 69.6648 0.753678 69.5981 0.770906C69.5314 0.788134 68.2219 0.885195 66.6881 0.986381ZM287.39 1.35643C288.326 1.82984 289.487 3.26198 289.81 4.3413C290.673 7.22231 288.352 10.4127 285.38 10.4304C284.165 10.4377 283.275 10.0664 282.304 9.14703C281.249 8.14827 280.817 7.11166 280.817 5.58077C280.817 2.09118 284.352 -0.180535 287.39 1.35643ZM283.242 5.46138C283.242 8.33269 283.268 8.49454 283.727 8.49454C284.148 8.49454 284.212 8.33269 284.212 7.28128C284.212 6.10975 284.236 6.06801 284.902 6.06801C285.457 6.06801 285.752 6.30363 286.417 7.28079C286.997 8.13129 287.407 8.49381 287.789 8.49405C288.089 8.4943 288.335 8.42732 288.335 8.34507C288.335 8.26281 287.941 7.6586 287.459 7.00223L286.584 5.8091L287.217 5.22213C288.036 4.46238 288.034 3.57888 287.211 2.93124C286.706 2.53329 286.224 2.42822 284.907 2.42822H283.242V5.46138ZM285.852 3.06713C286.171 3.15278 286.465 3.4726 286.555 3.8327C286.749 4.60385 285.947 5.34006 284.913 5.34006C284.234 5.34006 284.212 5.30269 284.212 4.12679C284.212 3.02927 284.264 2.91377 284.758 2.91693C285.058 2.91862 285.55 2.98632 285.852 3.06713ZM72.7506 7.78114C75.7787 8.26815 78.1366 9.79855 79.3442 12.0606C81.0658 15.2852 80.7461 20.8157 78.6645 23.8215C77.96 24.8384 75.8369 26.3606 74.6196 26.7212C72.8891 27.2336 70.0824 27.4365 68.122 27.1904C63.2181 26.5753 60.3966 23.7348 59.9479 18.9616C59.5784 15.0294 60.3549 12.1625 62.3228 10.1934C64.475 8.03981 68.5286 7.10196 72.7506 7.78114ZM202.004 9.96671C202.004 10.0934 203.15 12.5609 204.55 15.4502C205.951 18.3394 207.097 20.7407 207.097 20.7866C207.097 20.8325 204.478 20.8698 201.277 20.8698C197.621 20.8698 195.457 20.781 195.457 20.6311C195.457 20.4998 196.423 18.6707 197.604 16.5666C198.786 14.4626 200.157 12.0016 200.651 11.098C201.428 9.67553 202.004 9.19411 202.004 9.96671Z" fill="black"/>
</svg>
