<svg width="284" height="38" viewBox="0 0 284 38" fill="none" xmlns="http://www.w3.org/2000/svg">
<path d="M264.36 4.59371L261.247 9.67368H257.48L261.708 2.57724H266.858L266.704 7.38576L269.626 2.57724H273.431L269.164 9.67368H264.36V4.59371ZM277.581 2.57743L270.163 9.67388H274.506L276.082 8.08396H278.888L278.465 9.67388H282.77L284 2.57743H277.581ZM280.156 3.66323L279.349 6.61038H277.235L280.156 3.66323ZM278.696 22.8971C278.696 22.8971 265.167 20.8031 251.945 26.1157C251.945 26.1157 247.64 27.8607 242.721 30.6916L236.417 34.3367C236.417 34.3367 230.537 37.3614 225.156 37.8268C225.156 37.8268 219.429 38.2921 218.007 35.345C218.007 35.345 216.584 32.359 218.16 28.171C218.16 28.171 219.506 24.6421 222.388 21.3848C222.388 21.3848 219.736 21.8113 217.968 20.6867C217.968 20.6867 216.277 19.6785 216.354 17.9335C216.354 17.9335 216.431 16.1884 218.237 14.7924C218.237 14.7924 220.044 13.3576 222.542 13.0862C222.542 13.0862 225.002 12.8147 226.655 13.823C226.655 13.823 228.999 15.219 228.038 17.6232C228.038 17.6232 231.152 17.2742 237.532 17.8171C237.532 17.8171 231.805 23.4012 228.961 29.0241C228.961 29.0241 227.961 30.9242 228.192 32.2427C228.192 32.2427 228.384 33.5224 229.576 33.9489C229.576 33.9489 232.266 34.9184 237.109 31.7774L247.833 24.9911C247.833 24.9911 254.251 21.1909 259.479 18.9029C259.479 18.9029 273.239 13.0086 283.924 15.7231C283.924 15.7231 280.849 19.4071 278.696 22.8971ZM38.2434 4.63249C38.2434 4.63249 30.5178 4.01204 24.1375 5.52439C24.1375 5.52439 17.9494 6.99797 14.7977 10.0227C14.7977 10.0227 11.5306 13.2025 12.53 17.1191C12.53 17.1191 13.6446 21.4235 19.7559 25.7667C19.7559 25.7667 9.83948 25.3401 4.68911 21.0357C4.68911 21.0357 -3.1577e-05 17.1579 0.960858 11.9228C0.960858 11.9228 1.96018 6.68775 8.03301 3.35281C8.03301 3.35281 14.7977 -0.369919 25.1753 0.211757L37.7053 1.33633L47.6985 2.49968C47.6985 2.49968 58.153 3.5467 67.7619 1.72411C67.7619 1.72411 55.8469 9.90635 50.4274 15.6843C50.4274 15.6843 41.9716 24.7197 39.5117 36.0818C39.5117 36.0818 45.5846 35.2286 51.619 31.2345C51.619 31.2345 56.654 27.8995 60.3438 23.2849C60.3438 23.2849 71.3364 9.40223 84.5583 4.59371C84.5583 4.59371 76.1409 12.4657 73.3735 20.6092C73.3735 20.6092 70.9905 27.5893 72.451 35.9654C72.451 35.9654 75.2184 34.9572 78.1395 31.7386C78.1395 31.7386 80.2535 29.4119 83.3667 24.7973L88.6324 17.0804C88.6324 17.0804 91.7073 12.8147 94.3593 10.5268C94.3593 10.5268 104.199 1.60778 120.88 0.211757C120.88 0.211757 127.76 -0.331141 134.601 0.521984C134.601 0.521984 140.943 1.33633 145.632 3.19769C145.632 3.19769 138.33 6.26118 134.909 9.55735C134.909 9.55735 134.409 5.95096 130.719 3.77937C130.719 3.77937 127.03 1.60778 122.033 1.91801C122.033 1.91801 116.537 2.22823 111.54 5.48562C111.54 5.48562 105.813 9.20834 101.97 16.0721C101.97 16.0721 95.8583 26.9301 88.0943 32.0876C88.0943 32.0876 81.3297 36.5471 71.2595 37.8656C71.2595 37.8656 68.7997 36.5859 67.1469 33.9489C67.1469 33.9489 65.8017 31.7774 65.4173 29.567C65.4173 29.567 61.0357 32.9795 54.271 35.1899C54.271 35.1899 46.3148 37.788 37.6284 37.8268C37.6284 37.8268 29.6338 26.9301 34.3229 18.5152C34.3229 18.5152 39.358 9.40223 58.6142 4.39982L49.5434 5.3305L38.2434 4.63249Z" fill="black"/>
<path d="M121.764 14.8314C121.764 14.8314 120.073 13.8232 120.188 12.0782C120.188 12.0782 120.265 10.3332 122.071 8.93713C122.071 8.93713 123.878 7.50233 126.338 7.1921C126.338 7.1921 128.798 6.92066 130.489 7.96767C130.489 7.96767 132.18 8.97591 132.065 10.7209C132.065 10.7209 131.988 12.4272 130.181 13.862C130.181 13.862 128.375 15.2968 125.915 15.5682C125.915 15.5682 123.455 15.8397 121.764 14.8314ZM116.883 29.1794C116.883 29.1794 114.999 32.941 117.075 33.639C117.075 33.639 118.92 34.2206 124.839 32.6307L123.839 34.5309C123.839 34.5309 119.881 37.0902 113.846 37.7107C113.846 37.7107 107.312 38.3699 105.929 35.5003C105.929 35.5003 103.853 31.1571 107.966 24.6812C107.966 24.6812 109.58 22.1606 111.617 20.2216C111.617 20.2216 113.616 18.3603 114.961 17.9725C114.961 17.9725 117.459 17.2745 125.492 17.9725C125.492 17.9725 119.881 23.4015 116.883 29.1794ZM174.69 12.0782C174.69 12.0782 174.767 10.3332 176.573 8.93713C176.573 8.93713 178.418 7.50233 180.878 7.1921C180.878 7.1921 183.338 6.92066 184.99 7.96767C184.99 7.96767 186.682 8.97591 186.605 10.7209C186.605 10.7209 186.528 12.4272 184.721 13.862C184.721 13.862 182.915 15.2968 180.417 15.5682C180.417 15.5682 177.957 15.8397 176.304 14.8314C176.304 14.8314 174.613 13.8232 174.69 12.0782ZM163.889 14.909C163.889 14.909 161.545 19.1358 154.434 23.6341C154.434 23.6341 146.978 28.2875 140.482 29.1794V27.7059C140.482 27.7059 144.902 26.8527 149.783 23.9444C149.783 23.9444 154.319 21.2299 157.701 17.7786C157.701 17.7786 161.084 14.3273 161.699 11.7292C161.699 11.7292 162.352 8.85957 159.316 8.12279C159.316 8.12279 155.626 7.19211 149.745 12.1557C149.745 12.1557 144.172 16.8479 141.097 22.781C141.097 22.781 137.792 29.2182 140.482 32.049C140.482 32.049 143.672 35.4228 154.857 32.0878L153.819 34.0267C153.819 34.0267 147.862 36.8576 142.096 37.6331C142.096 37.6331 136.254 38.3699 132.641 36.7025C132.641 36.7025 128.721 34.9186 128.567 30.6918C128.567 30.6918 128.413 25.9608 133.064 18.942C133.064 18.942 137.945 11.5353 144.979 7.1921C144.979 7.1921 151.244 3.31427 157.048 3.00404C157.048 3.00404 162.659 2.69381 164.812 5.79608C164.812 5.79608 167.118 9.13102 163.889 14.909ZM192.14 2.57748H202.517L201.556 4.16739H198.481L195.214 9.67392H190.948L194.215 4.16739H191.179L192.14 2.57748ZM162.506 24.6812C162.506 24.6812 164.12 22.1606 166.157 20.2216C166.157 20.2216 168.156 18.3603 169.501 17.9725C169.501 17.9725 171.961 17.2745 179.994 17.9725C179.994 17.9725 174.267 23.5566 171.423 29.1794C171.423 29.1794 169.539 32.941 171.615 33.639C171.615 33.639 173.46 34.2206 179.379 32.6307L178.341 34.5309C178.341 34.5309 174.382 37.0902 168.386 37.7107C168.386 37.7107 161.852 38.3699 160.469 35.5003C160.469 35.5003 158.393 31.1571 162.506 24.6812ZM185.836 24.7199C185.836 24.7199 188.796 19.7563 194.215 16.4989C194.215 16.4989 199.058 13.6293 203.978 13.1252C203.978 13.1252 208.821 12.6211 210.896 14.7539C210.896 14.7539 213.164 17.0418 210.742 21.5401C210.742 21.5401 209.013 24.7587 204.939 27.4344C204.939 27.4344 200.48 30.3816 195.061 31.3123L194.945 30.1101C194.945 30.1101 202.479 27.861 206.438 23.4015C206.438 23.4015 208.09 21.5401 208.244 20.0665C208.244 20.0665 208.436 18.5542 206.899 18.0501C206.899 18.0501 202.978 16.7316 198.481 21.2299C198.481 21.2299 194.1 25.6118 193.831 30.5755C193.831 30.5755 193.754 34.8411 201.018 33.6777C201.018 33.6777 204.862 33.0961 209.666 31.2347L208.744 33.0573C208.744 33.0573 204.055 35.8493 198.558 37.0902C198.558 37.0902 193.1 38.3311 189.103 37.5556C189.103 37.5556 184.798 36.7025 183.722 33.6777C183.722 33.6777 182.531 30.2652 185.836 24.7199ZM236.648 5.09807L238.301 5.56341C238.301 5.56341 240.722 6.3002 239.953 7.54111C239.953 7.54111 238.608 9.79026 232.997 9.79026C232.997 9.79026 230.729 9.79026 229.614 9.20858L230.652 7.46355C230.652 7.46355 231.344 8.23912 233.611 8.23912C233.611 8.23912 235.572 8.23912 235.918 7.65745C235.918 7.65745 236.11 7.30844 235.38 7.03699L233.65 6.57165C233.65 6.57165 231.19 5.83486 231.959 4.55517C231.959 4.55517 233.266 2.42236 238.416 2.42236C238.416 2.42236 241.03 2.42236 242.183 3.0816L241.145 4.78784C241.145 4.78784 240.607 4.05106 238.378 4.05106C238.378 4.05106 236.379 4.05106 236.033 4.59395C236.033 4.59395 235.879 4.8654 236.648 5.09807ZM230.883 4.12861H226.04L225.271 5.36952H230.152L229.23 6.92066H224.349L223.618 8.12279H228.5L227.577 9.67392H218.429L222.696 2.57748H231.805L230.883 4.12861ZM252.752 4.16739H249.716L246.411 9.67392H242.144L245.45 4.16739H242.375L243.336 2.57748H253.713L252.752 4.16739ZM250.715 9.67392L254.943 2.57748H259.21L254.982 9.67392H250.715ZM203.67 2.57767L199.403 9.67412H203.516L205.361 6.68818L205.937 9.67412H210.281L209.204 6.53307C212.049 6.26162 213.048 4.55537 213.048 4.55537C214.239 2.57767 209.589 2.57767 209.589 2.57767H203.67ZM206.86 4.05125H207.398C209.128 4.05125 208.628 4.78804 208.628 4.78804C208.167 5.56361 206.783 5.56361 206.783 5.56361H205.976L206.86 4.05125ZM220.197 2.57748L215.931 9.67392H211.665L215.931 2.57748H220.197Z" fill="black"/>
</svg>
